%TF.GenerationSoftware,KiCad,Pcbnew,9.0.5*%
%TF.CreationDate,2025-12-14T14:14:54+01:00*%
%TF.ProjectId,waage_ina155_ad8041,77616167-655f-4696-9e61-3135355f6164,rev?*%
%TF.SameCoordinates,Original*%
%TF.FileFunction,Copper,L2,Bot*%
%TF.FilePolarity,Positive*%
%FSLAX46Y46*%
G04 Gerber Fmt 4.6, Leading zero omitted, Abs format (unit mm)*
G04 Created by KiCad (PCBNEW 9.0.5) date 2025-12-14 14:14:54*
%MOMM*%
%LPD*%
G01*
G04 APERTURE LIST*
G04 Aperture macros list*
%AMRoundRect*
0 Rectangle with rounded corners*
0 $1 Rounding radius*
0 $2 $3 $4 $5 $6 $7 $8 $9 X,Y pos of 4 corners*
0 Add a 4 corners polygon primitive as box body*
4,1,4,$2,$3,$4,$5,$6,$7,$8,$9,$2,$3,0*
0 Add four circle primitives for the rounded corners*
1,1,$1+$1,$2,$3*
1,1,$1+$1,$4,$5*
1,1,$1+$1,$6,$7*
1,1,$1+$1,$8,$9*
0 Add four rect primitives between the rounded corners*
20,1,$1+$1,$2,$3,$4,$5,0*
20,1,$1+$1,$4,$5,$6,$7,0*
20,1,$1+$1,$6,$7,$8,$9,0*
20,1,$1+$1,$8,$9,$2,$3,0*%
G04 Aperture macros list end*
%TA.AperFunction,ComponentPad*%
%ADD10R,1.700000X1.700000*%
%TD*%
%TA.AperFunction,ComponentPad*%
%ADD11C,1.700000*%
%TD*%
%TA.AperFunction,ComponentPad*%
%ADD12RoundRect,0.250000X0.550000X0.550000X-0.550000X0.550000X-0.550000X-0.550000X0.550000X-0.550000X0*%
%TD*%
%TA.AperFunction,ComponentPad*%
%ADD13C,1.600000*%
%TD*%
%TA.AperFunction,ViaPad*%
%ADD14C,0.600000*%
%TD*%
%TA.AperFunction,Conductor*%
%ADD15C,0.750000*%
%TD*%
G04 APERTURE END LIST*
D10*
%TO.P,J2,1,Pin_1*%
%TO.N,+3V3*%
X119605400Y-106661316D03*
D11*
%TO.P,J2,2,Pin_2*%
%TO.N,/a+*%
X119605400Y-109201316D03*
%TO.P,J2,3,Pin_3*%
%TO.N,/a-*%
X119605400Y-111741316D03*
%TO.P,J2,4,Pin_4*%
%TO.N,GND*%
X119605400Y-114281316D03*
%TD*%
D12*
%TO.P,C1,1*%
%TO.N,+3V3*%
X185376800Y-97796716D03*
D13*
%TO.P,C1,2*%
%TO.N,GND*%
X182876800Y-97796716D03*
%TD*%
D10*
%TO.P,TP10,1,1*%
%TO.N,/a+*%
X130806800Y-105416716D03*
%TD*%
%TO.P,J1,1,Pin_1*%
%TO.N,+3V3*%
X185415540Y-107878206D03*
D11*
%TO.P,J1,2,Pin_2*%
%TO.N,/AnalogData*%
X185415540Y-110418206D03*
%TO.P,J1,3,Pin_3*%
%TO.N,GND*%
X185415540Y-112958206D03*
%TD*%
D10*
%TO.P,TP9,1,1*%
%TO.N,+3V3*%
X179066800Y-104146716D03*
%TD*%
%TO.P,TP4,1,1*%
%TO.N,GND*%
X182876800Y-128276716D03*
%TD*%
%TO.P,TP5,1,1*%
%TO.N,/AnalogData*%
X168547980Y-104289459D03*
%TD*%
%TO.P,TP11,1,1*%
%TO.N,/a-*%
X130806800Y-113036716D03*
%TD*%
%TO.P,TP7,1,1*%
%TO.N,Net-(U1-Ref)*%
X158746800Y-110496716D03*
%TD*%
%TO.P,TP8,1,1*%
%TO.N,Net-(U2-+Input)*%
X148907552Y-96858380D03*
%TD*%
%TO.P,TP6,1,1*%
%TO.N,Net-(U1-Vout)*%
X139696800Y-120656716D03*
%TD*%
%TO.P,TP1,1,1*%
%TO.N,GND*%
X121916800Y-95256716D03*
%TD*%
%TO.P,TP2,1,1*%
%TO.N,GND*%
X121894963Y-128272938D03*
%TD*%
%TO.P,TP3,1,1*%
%TO.N,GND*%
X153666800Y-128276716D03*
%TD*%
D14*
%TO.N,+3V3*%
X180336800Y-106686716D03*
X179066800Y-116846716D03*
X179066800Y-115576716D03*
X179066800Y-113036716D03*
X177796800Y-106686716D03*
X179066800Y-114306716D03*
X179066800Y-107956716D03*
X179066800Y-106686716D03*
%TO.N,GND*%
X162167041Y-99946957D03*
X138324202Y-114204118D03*
X155635605Y-103575521D03*
X176706491Y-123196716D03*
X152786904Y-103580779D03*
X154936800Y-103575521D03*
X135886800Y-115576716D03*
X136983128Y-115534919D03*
X173985121Y-102875037D03*
X137689202Y-114839118D03*
X160950746Y-101163251D03*
X173985121Y-100336716D03*
X176706491Y-127000000D03*
X173985121Y-101606716D03*
X153666800Y-103575521D03*
X176706491Y-125557025D03*
X161532041Y-100581957D03*
X173985121Y-99066716D03*
X176706491Y-124466716D03*
%TD*%
D15*
%TO.N,+3V3*%
X179066800Y-113036716D02*
X179066800Y-114306716D01*
X179066800Y-113036716D02*
X179066800Y-107956716D01*
X179066800Y-115576716D02*
X179066800Y-116846716D01*
X179066800Y-107956716D02*
X179066800Y-106686716D01*
X177796800Y-106686716D02*
X179066800Y-106686716D01*
X179066800Y-106686716D02*
X180336800Y-106686716D01*
X179066800Y-114306716D02*
X179066800Y-115576716D01*
%TD*%
%TA.AperFunction,Conductor*%
%TO.N,GND*%
G36*
X189929939Y-89428100D02*
G01*
X189975694Y-89480904D01*
X189986900Y-89532415D01*
X189986900Y-132725500D01*
X189967215Y-132792539D01*
X189914411Y-132838294D01*
X189862900Y-132849500D01*
X114937100Y-132849500D01*
X114870061Y-132829815D01*
X114824306Y-132777011D01*
X114813100Y-132725500D01*
X114813100Y-127375093D01*
X120544963Y-127375093D01*
X120544963Y-128022938D01*
X121461951Y-128022938D01*
X121429038Y-128079945D01*
X121394963Y-128207112D01*
X121394963Y-128338764D01*
X121429038Y-128465931D01*
X121461951Y-128522938D01*
X120544963Y-128522938D01*
X120544963Y-129170782D01*
X120551364Y-129230310D01*
X120551366Y-129230317D01*
X120601608Y-129365024D01*
X120601612Y-129365031D01*
X120687772Y-129480125D01*
X120687775Y-129480128D01*
X120802869Y-129566288D01*
X120802876Y-129566292D01*
X120937583Y-129616534D01*
X120937590Y-129616536D01*
X120997118Y-129622937D01*
X120997135Y-129622938D01*
X121644963Y-129622938D01*
X121644963Y-128705950D01*
X121701970Y-128738863D01*
X121829137Y-128772938D01*
X121960789Y-128772938D01*
X122087956Y-128738863D01*
X122144963Y-128705950D01*
X122144963Y-129622938D01*
X122792791Y-129622938D01*
X122792807Y-129622937D01*
X122852335Y-129616536D01*
X122852342Y-129616534D01*
X122987049Y-129566292D01*
X122987056Y-129566288D01*
X123102150Y-129480128D01*
X123102153Y-129480125D01*
X123188313Y-129365031D01*
X123188317Y-129365024D01*
X123238559Y-129230317D01*
X123238561Y-129230310D01*
X123244962Y-129170782D01*
X123244963Y-129170765D01*
X123244963Y-128522938D01*
X122327975Y-128522938D01*
X122360888Y-128465931D01*
X122394963Y-128338764D01*
X122394963Y-128207112D01*
X122360888Y-128079945D01*
X122327975Y-128022938D01*
X123244963Y-128022938D01*
X123244963Y-127378871D01*
X152316800Y-127378871D01*
X152316800Y-128026716D01*
X153233788Y-128026716D01*
X153200875Y-128083723D01*
X153166800Y-128210890D01*
X153166800Y-128342542D01*
X153200875Y-128469709D01*
X153233788Y-128526716D01*
X152316800Y-128526716D01*
X152316800Y-129174560D01*
X152323201Y-129234088D01*
X152323203Y-129234095D01*
X152373445Y-129368802D01*
X152373449Y-129368809D01*
X152459609Y-129483903D01*
X152459612Y-129483906D01*
X152574706Y-129570066D01*
X152574713Y-129570070D01*
X152709420Y-129620312D01*
X152709427Y-129620314D01*
X152768955Y-129626715D01*
X152768972Y-129626716D01*
X153416800Y-129626716D01*
X153416800Y-128709728D01*
X153473807Y-128742641D01*
X153600974Y-128776716D01*
X153732626Y-128776716D01*
X153859793Y-128742641D01*
X153916800Y-128709728D01*
X153916800Y-129626716D01*
X154564628Y-129626716D01*
X154564644Y-129626715D01*
X154624172Y-129620314D01*
X154624179Y-129620312D01*
X154758886Y-129570070D01*
X154758893Y-129570066D01*
X154873987Y-129483906D01*
X154873990Y-129483903D01*
X154960150Y-129368809D01*
X154960154Y-129368802D01*
X155010396Y-129234095D01*
X155010398Y-129234088D01*
X155016799Y-129174560D01*
X155016800Y-129174543D01*
X155016800Y-128526716D01*
X154099812Y-128526716D01*
X154132725Y-128469709D01*
X154166800Y-128342542D01*
X154166800Y-128210890D01*
X154132725Y-128083723D01*
X154099812Y-128026716D01*
X155016800Y-128026716D01*
X155016800Y-127378888D01*
X155016799Y-127378871D01*
X181526800Y-127378871D01*
X181526800Y-128026716D01*
X182443788Y-128026716D01*
X182410875Y-128083723D01*
X182376800Y-128210890D01*
X182376800Y-128342542D01*
X182410875Y-128469709D01*
X182443788Y-128526716D01*
X181526800Y-128526716D01*
X181526800Y-129174560D01*
X181533201Y-129234088D01*
X181533203Y-129234095D01*
X181583445Y-129368802D01*
X181583449Y-129368809D01*
X181669609Y-129483903D01*
X181669612Y-129483906D01*
X181784706Y-129570066D01*
X181784713Y-129570070D01*
X181919420Y-129620312D01*
X181919427Y-129620314D01*
X181978955Y-129626715D01*
X181978972Y-129626716D01*
X182626800Y-129626716D01*
X182626800Y-128709728D01*
X182683807Y-128742641D01*
X182810974Y-128776716D01*
X182942626Y-128776716D01*
X183069793Y-128742641D01*
X183126800Y-128709728D01*
X183126800Y-129626716D01*
X183774628Y-129626716D01*
X183774644Y-129626715D01*
X183834172Y-129620314D01*
X183834179Y-129620312D01*
X183968886Y-129570070D01*
X183968893Y-129570066D01*
X184083987Y-129483906D01*
X184083990Y-129483903D01*
X184170150Y-129368809D01*
X184170154Y-129368802D01*
X184220396Y-129234095D01*
X184220398Y-129234088D01*
X184226799Y-129174560D01*
X184226800Y-129174543D01*
X184226800Y-128526716D01*
X183309812Y-128526716D01*
X183342725Y-128469709D01*
X183376800Y-128342542D01*
X183376800Y-128210890D01*
X183342725Y-128083723D01*
X183309812Y-128026716D01*
X184226800Y-128026716D01*
X184226800Y-127378888D01*
X184226799Y-127378871D01*
X184220398Y-127319343D01*
X184220396Y-127319336D01*
X184170154Y-127184629D01*
X184170150Y-127184622D01*
X184083990Y-127069528D01*
X184083987Y-127069525D01*
X183968893Y-126983365D01*
X183968886Y-126983361D01*
X183834179Y-126933119D01*
X183834172Y-126933117D01*
X183774644Y-126926716D01*
X183126800Y-126926716D01*
X183126800Y-127843704D01*
X183069793Y-127810791D01*
X182942626Y-127776716D01*
X182810974Y-127776716D01*
X182683807Y-127810791D01*
X182626800Y-127843704D01*
X182626800Y-126926716D01*
X181978955Y-126926716D01*
X181919427Y-126933117D01*
X181919420Y-126933119D01*
X181784713Y-126983361D01*
X181784706Y-126983365D01*
X181669612Y-127069525D01*
X181669609Y-127069528D01*
X181583449Y-127184622D01*
X181583445Y-127184629D01*
X181533203Y-127319336D01*
X181533201Y-127319343D01*
X181526800Y-127378871D01*
X155016799Y-127378871D01*
X155010398Y-127319343D01*
X155010396Y-127319336D01*
X154960154Y-127184629D01*
X154960150Y-127184622D01*
X154873990Y-127069528D01*
X154873987Y-127069525D01*
X154758893Y-126983365D01*
X154758886Y-126983361D01*
X154624179Y-126933119D01*
X154624172Y-126933117D01*
X154564644Y-126926716D01*
X153916800Y-126926716D01*
X153916800Y-127843704D01*
X153859793Y-127810791D01*
X153732626Y-127776716D01*
X153600974Y-127776716D01*
X153473807Y-127810791D01*
X153416800Y-127843704D01*
X153416800Y-126926716D01*
X152768955Y-126926716D01*
X152709427Y-126933117D01*
X152709420Y-126933119D01*
X152574713Y-126983361D01*
X152574706Y-126983365D01*
X152459612Y-127069525D01*
X152459609Y-127069528D01*
X152373449Y-127184622D01*
X152373445Y-127184629D01*
X152323203Y-127319336D01*
X152323201Y-127319343D01*
X152316800Y-127378871D01*
X123244963Y-127378871D01*
X123244963Y-127375110D01*
X123244962Y-127375093D01*
X123238561Y-127315565D01*
X123238559Y-127315558D01*
X123188317Y-127180851D01*
X123188313Y-127180844D01*
X123102153Y-127065750D01*
X123102150Y-127065747D01*
X122987056Y-126979587D01*
X122987049Y-126979583D01*
X122852342Y-126929341D01*
X122852335Y-126929339D01*
X122792807Y-126922938D01*
X122144963Y-126922938D01*
X122144963Y-127839926D01*
X122087956Y-127807013D01*
X121960789Y-127772938D01*
X121829137Y-127772938D01*
X121701970Y-127807013D01*
X121644963Y-127839926D01*
X121644963Y-126922938D01*
X120997118Y-126922938D01*
X120937590Y-126929339D01*
X120937583Y-126929341D01*
X120802876Y-126979583D01*
X120802869Y-126979587D01*
X120687775Y-127065747D01*
X120687772Y-127065750D01*
X120601612Y-127180844D01*
X120601608Y-127180851D01*
X120551366Y-127315558D01*
X120551364Y-127315565D01*
X120544963Y-127375093D01*
X114813100Y-127375093D01*
X114813100Y-121310639D01*
X127291296Y-121310639D01*
X127291296Y-121689360D01*
X127328417Y-122066269D01*
X127402298Y-122437701D01*
X127402301Y-122437712D01*
X127512243Y-122800144D01*
X127657177Y-123150044D01*
X127657179Y-123150049D01*
X127835701Y-123484040D01*
X127835712Y-123484058D01*
X128046113Y-123798944D01*
X128046123Y-123798958D01*
X128286386Y-124091720D01*
X128554177Y-124359511D01*
X128554182Y-124359515D01*
X128554183Y-124359516D01*
X128846945Y-124599779D01*
X129161846Y-124810190D01*
X129161855Y-124810195D01*
X129161857Y-124810196D01*
X129495848Y-124988718D01*
X129495850Y-124988718D01*
X129495856Y-124988722D01*
X129845755Y-125133655D01*
X130208176Y-125243594D01*
X130208182Y-125243595D01*
X130208185Y-125243596D01*
X130208196Y-125243599D01*
X130579628Y-125317480D01*
X130956534Y-125354602D01*
X130956537Y-125354602D01*
X131335259Y-125354602D01*
X131335262Y-125354602D01*
X131712168Y-125317480D01*
X131784474Y-125303097D01*
X132083599Y-125243599D01*
X132083610Y-125243596D01*
X132083610Y-125243595D01*
X132083620Y-125243594D01*
X132446041Y-125133655D01*
X132795940Y-124988722D01*
X133129950Y-124810190D01*
X133444851Y-124599779D01*
X133737613Y-124359516D01*
X134005414Y-124091715D01*
X134245677Y-123798953D01*
X134456088Y-123484052D01*
X134634620Y-123150042D01*
X134779553Y-122800143D01*
X134889492Y-122437722D01*
X134889494Y-122437712D01*
X134889497Y-122437701D01*
X134963378Y-122066269D01*
X134969194Y-122007215D01*
X135000500Y-121689364D01*
X135000500Y-121310636D01*
X134963378Y-120933730D01*
X134889497Y-120562298D01*
X134889494Y-120562287D01*
X134889493Y-120562284D01*
X134889492Y-120562278D01*
X134779553Y-120199857D01*
X134634620Y-119849958D01*
X134585922Y-119758851D01*
X138346300Y-119758851D01*
X138346300Y-121554586D01*
X138346301Y-121554592D01*
X138352708Y-121614199D01*
X138403002Y-121749044D01*
X138403006Y-121749051D01*
X138489252Y-121864260D01*
X138489255Y-121864263D01*
X138604464Y-121950509D01*
X138604471Y-121950513D01*
X138739317Y-122000807D01*
X138739316Y-122000807D01*
X138746244Y-122001551D01*
X138798927Y-122007216D01*
X140594672Y-122007215D01*
X140654283Y-122000807D01*
X140789131Y-121950512D01*
X140904346Y-121864262D01*
X140990596Y-121749047D01*
X141040891Y-121614199D01*
X141047300Y-121554589D01*
X141047300Y-121310639D01*
X181145398Y-121310639D01*
X181145398Y-121689360D01*
X181182519Y-122066269D01*
X181256400Y-122437701D01*
X181256403Y-122437712D01*
X181366345Y-122800144D01*
X181511279Y-123150044D01*
X181511281Y-123150049D01*
X181689803Y-123484040D01*
X181689814Y-123484058D01*
X181900215Y-123798944D01*
X181900225Y-123798958D01*
X182140488Y-124091720D01*
X182408279Y-124359511D01*
X182408284Y-124359515D01*
X182408285Y-124359516D01*
X182701047Y-124599779D01*
X183015948Y-124810190D01*
X183015957Y-124810195D01*
X183015959Y-124810196D01*
X183349950Y-124988718D01*
X183349952Y-124988718D01*
X183349958Y-124988722D01*
X183699857Y-125133655D01*
X184062278Y-125243594D01*
X184062284Y-125243595D01*
X184062287Y-125243596D01*
X184062298Y-125243599D01*
X184433730Y-125317480D01*
X184810636Y-125354602D01*
X184810639Y-125354602D01*
X185189361Y-125354602D01*
X185189364Y-125354602D01*
X185566270Y-125317480D01*
X185638576Y-125303097D01*
X185937701Y-125243599D01*
X185937712Y-125243596D01*
X185937712Y-125243595D01*
X185937722Y-125243594D01*
X186300143Y-125133655D01*
X186650042Y-124988722D01*
X186984052Y-124810190D01*
X187298953Y-124599779D01*
X187591715Y-124359516D01*
X187859516Y-124091715D01*
X188099779Y-123798953D01*
X188310190Y-123484052D01*
X188488722Y-123150042D01*
X188633655Y-122800143D01*
X188743594Y-122437722D01*
X188743596Y-122437712D01*
X188743599Y-122437701D01*
X188817480Y-122066269D01*
X188823296Y-122007215D01*
X188854602Y-121689364D01*
X188854602Y-121310636D01*
X188817480Y-120933730D01*
X188743599Y-120562298D01*
X188743596Y-120562287D01*
X188743595Y-120562284D01*
X188743594Y-120562278D01*
X188633655Y-120199857D01*
X188488722Y-119849958D01*
X188440024Y-119758851D01*
X188310196Y-119515959D01*
X188310195Y-119515957D01*
X188310190Y-119515948D01*
X188099779Y-119201047D01*
X187859516Y-118908285D01*
X187859515Y-118908284D01*
X187859511Y-118908279D01*
X187591720Y-118640488D01*
X187298958Y-118400225D01*
X187298957Y-118400224D01*
X187298953Y-118400221D01*
X186984052Y-118189810D01*
X186984047Y-118189807D01*
X186984040Y-118189803D01*
X186650049Y-118011281D01*
X186650044Y-118011279D01*
X186300144Y-117866345D01*
X185937712Y-117756403D01*
X185937701Y-117756400D01*
X185566269Y-117682519D01*
X185282400Y-117654561D01*
X185189364Y-117645398D01*
X184810636Y-117645398D01*
X184724672Y-117653864D01*
X184433730Y-117682519D01*
X184062298Y-117756400D01*
X184062287Y-117756403D01*
X183699855Y-117866345D01*
X183349955Y-118011279D01*
X183349950Y-118011281D01*
X183015959Y-118189803D01*
X183015941Y-118189814D01*
X182701055Y-118400215D01*
X182701041Y-118400225D01*
X182408279Y-118640488D01*
X182140488Y-118908279D01*
X181900225Y-119201041D01*
X181900215Y-119201055D01*
X181689814Y-119515941D01*
X181689803Y-119515959D01*
X181511281Y-119849950D01*
X181511279Y-119849955D01*
X181366345Y-120199855D01*
X181256403Y-120562287D01*
X181256400Y-120562298D01*
X181182519Y-120933730D01*
X181145398Y-121310639D01*
X141047300Y-121310639D01*
X141047299Y-120562298D01*
X141047299Y-119758845D01*
X141047298Y-119758839D01*
X141047297Y-119758832D01*
X141040891Y-119699233D01*
X140990596Y-119564385D01*
X140990595Y-119564384D01*
X140990593Y-119564380D01*
X140904347Y-119449171D01*
X140904344Y-119449168D01*
X140789135Y-119362922D01*
X140789128Y-119362918D01*
X140654282Y-119312624D01*
X140654283Y-119312624D01*
X140594683Y-119306217D01*
X140594681Y-119306216D01*
X140594673Y-119306216D01*
X140594664Y-119306216D01*
X138798929Y-119306216D01*
X138798923Y-119306217D01*
X138739316Y-119312624D01*
X138604471Y-119362918D01*
X138604464Y-119362922D01*
X138489255Y-119449168D01*
X138489252Y-119449171D01*
X138403006Y-119564380D01*
X138403002Y-119564387D01*
X138352708Y-119699233D01*
X138346301Y-119758832D01*
X138346301Y-119758839D01*
X138346300Y-119758851D01*
X134585922Y-119758851D01*
X134456094Y-119515959D01*
X134456093Y-119515957D01*
X134456088Y-119515948D01*
X134245677Y-119201047D01*
X134005414Y-118908285D01*
X134005413Y-118908284D01*
X134005409Y-118908279D01*
X133737618Y-118640488D01*
X133444856Y-118400225D01*
X133444855Y-118400224D01*
X133444851Y-118400221D01*
X133129950Y-118189810D01*
X133129945Y-118189807D01*
X133129938Y-118189803D01*
X132795947Y-118011281D01*
X132795942Y-118011279D01*
X132446042Y-117866345D01*
X132083610Y-117756403D01*
X132083599Y-117756400D01*
X131712167Y-117682519D01*
X131428298Y-117654561D01*
X131335262Y-117645398D01*
X130956534Y-117645398D01*
X130870570Y-117653864D01*
X130579628Y-117682519D01*
X130208196Y-117756400D01*
X130208185Y-117756403D01*
X129845753Y-117866345D01*
X129495853Y-118011279D01*
X129495848Y-118011281D01*
X129161857Y-118189803D01*
X129161839Y-118189814D01*
X128846953Y-118400215D01*
X128846939Y-118400225D01*
X128554177Y-118640488D01*
X128286386Y-118908279D01*
X128046123Y-119201041D01*
X128046113Y-119201055D01*
X127835712Y-119515941D01*
X127835701Y-119515959D01*
X127657179Y-119849950D01*
X127657177Y-119849955D01*
X127512243Y-120199855D01*
X127402301Y-120562287D01*
X127402298Y-120562298D01*
X127328417Y-120933730D01*
X127291296Y-121310639D01*
X114813100Y-121310639D01*
X114813100Y-105763451D01*
X118254900Y-105763451D01*
X118254900Y-107559186D01*
X118254901Y-107559192D01*
X118261308Y-107618799D01*
X118311602Y-107753644D01*
X118311606Y-107753651D01*
X118397852Y-107868860D01*
X118397855Y-107868863D01*
X118513064Y-107955109D01*
X118513071Y-107955113D01*
X118644482Y-108004126D01*
X118700416Y-108045997D01*
X118724833Y-108111461D01*
X118709982Y-108179734D01*
X118688831Y-108207989D01*
X118575289Y-108321531D01*
X118450351Y-108493495D01*
X118353844Y-108682901D01*
X118288153Y-108885076D01*
X118274617Y-108970541D01*
X118254900Y-109095029D01*
X118254900Y-109307603D01*
X118288154Y-109517559D01*
X118350807Y-109710385D01*
X118353844Y-109719730D01*
X118450351Y-109909136D01*
X118575290Y-110081102D01*
X118725613Y-110231425D01*
X118897582Y-110356366D01*
X118906346Y-110360832D01*
X118957142Y-110408807D01*
X118973936Y-110476628D01*
X118951398Y-110542763D01*
X118906346Y-110581800D01*
X118897582Y-110586265D01*
X118725613Y-110711206D01*
X118575290Y-110861529D01*
X118450351Y-111033495D01*
X118353844Y-111222901D01*
X118288153Y-111425076D01*
X118256334Y-111625972D01*
X118254900Y-111635029D01*
X118254900Y-111847603D01*
X118288154Y-112057559D01*
X118314567Y-112138851D01*
X118353844Y-112259730D01*
X118450351Y-112449136D01*
X118575290Y-112621102D01*
X118725613Y-112771425D01*
X118897579Y-112896364D01*
X118897581Y-112896365D01*
X118897584Y-112896367D01*
X118906893Y-112901110D01*
X118957690Y-112949082D01*
X118974487Y-113016903D01*
X118951952Y-113083038D01*
X118906905Y-113122076D01*
X118897846Y-113126692D01*
X118897840Y-113126696D01*
X118843682Y-113166043D01*
X118843682Y-113166044D01*
X119475991Y-113798353D01*
X119412407Y-113815391D01*
X119298393Y-113881217D01*
X119205301Y-113974309D01*
X119139475Y-114088323D01*
X119122437Y-114151907D01*
X118490128Y-113519598D01*
X118490127Y-113519598D01*
X118450780Y-113573755D01*
X118354304Y-113763098D01*
X118288642Y-113965185D01*
X118288642Y-113965188D01*
X118255400Y-114175069D01*
X118255400Y-114387562D01*
X118288642Y-114597443D01*
X118288642Y-114597446D01*
X118354304Y-114799533D01*
X118450775Y-114988866D01*
X118490128Y-115043032D01*
X119122437Y-114410724D01*
X119139475Y-114474309D01*
X119205301Y-114588323D01*
X119298393Y-114681415D01*
X119412407Y-114747241D01*
X119475990Y-114764278D01*
X118843682Y-115396585D01*
X118843682Y-115396586D01*
X118897849Y-115435940D01*
X119087182Y-115532411D01*
X119289270Y-115598073D01*
X119499154Y-115631316D01*
X119711646Y-115631316D01*
X119921527Y-115598073D01*
X119921530Y-115598073D01*
X120123617Y-115532411D01*
X120312954Y-115435938D01*
X120367116Y-115396586D01*
X120367117Y-115396586D01*
X119734808Y-114764278D01*
X119798393Y-114747241D01*
X119912407Y-114681415D01*
X120005499Y-114588323D01*
X120071325Y-114474309D01*
X120088362Y-114410725D01*
X120720670Y-115043033D01*
X120720670Y-115043032D01*
X120760022Y-114988870D01*
X120856495Y-114799533D01*
X120922157Y-114597446D01*
X120922157Y-114597443D01*
X120955400Y-114387562D01*
X120955400Y-114175069D01*
X120922157Y-113965188D01*
X120922157Y-113965185D01*
X120856495Y-113763098D01*
X120760024Y-113573765D01*
X120720670Y-113519598D01*
X120720669Y-113519598D01*
X120088362Y-114151906D01*
X120071325Y-114088323D01*
X120005499Y-113974309D01*
X119912407Y-113881217D01*
X119798393Y-113815391D01*
X119734809Y-113798353D01*
X120367116Y-113166044D01*
X120312947Y-113126689D01*
X120312947Y-113126688D01*
X120303900Y-113122079D01*
X120253106Y-113074104D01*
X120236312Y-113006282D01*
X120258851Y-112940148D01*
X120303908Y-112901109D01*
X120313216Y-112896367D01*
X120392407Y-112838831D01*
X120485186Y-112771425D01*
X120485188Y-112771422D01*
X120485192Y-112771420D01*
X120635504Y-112621108D01*
X120635506Y-112621104D01*
X120635509Y-112621102D01*
X120760448Y-112449136D01*
X120760447Y-112449136D01*
X120760451Y-112449132D01*
X120856957Y-112259728D01*
X120896233Y-112138851D01*
X129456300Y-112138851D01*
X129456300Y-113934586D01*
X129456301Y-113934592D01*
X129462708Y-113994199D01*
X129513002Y-114129044D01*
X129513006Y-114129051D01*
X129599252Y-114244260D01*
X129599255Y-114244263D01*
X129714464Y-114330509D01*
X129714471Y-114330513D01*
X129849317Y-114380807D01*
X129849316Y-114380807D01*
X129856244Y-114381551D01*
X129908927Y-114387216D01*
X131704672Y-114387215D01*
X131764283Y-114380807D01*
X131899131Y-114330512D01*
X132014346Y-114244262D01*
X132100596Y-114129047D01*
X132150891Y-113994199D01*
X132157300Y-113934589D01*
X132157299Y-112138844D01*
X132150891Y-112079233D01*
X132100596Y-111944385D01*
X132100595Y-111944384D01*
X132100593Y-111944380D01*
X132014347Y-111829171D01*
X132014344Y-111829168D01*
X131899135Y-111742922D01*
X131899128Y-111742918D01*
X131764282Y-111692624D01*
X131764283Y-111692624D01*
X131704683Y-111686217D01*
X131704681Y-111686216D01*
X131704673Y-111686216D01*
X131704664Y-111686216D01*
X129908929Y-111686216D01*
X129908923Y-111686217D01*
X129849316Y-111692624D01*
X129714471Y-111742918D01*
X129714464Y-111742922D01*
X129599255Y-111829168D01*
X129599252Y-111829171D01*
X129513006Y-111944380D01*
X129513002Y-111944387D01*
X129462708Y-112079233D01*
X129456301Y-112138832D01*
X129456301Y-112138839D01*
X129456300Y-112138851D01*
X120896233Y-112138851D01*
X120922646Y-112057559D01*
X120955900Y-111847603D01*
X120955900Y-111635029D01*
X120922646Y-111425073D01*
X120856957Y-111222904D01*
X120760451Y-111033500D01*
X120760449Y-111033497D01*
X120760448Y-111033495D01*
X120635509Y-110861529D01*
X120485186Y-110711206D01*
X120313220Y-110586267D01*
X120312515Y-110585907D01*
X120304454Y-110581801D01*
X120253659Y-110533828D01*
X120236863Y-110466008D01*
X120259399Y-110399872D01*
X120304454Y-110360831D01*
X120313216Y-110356367D01*
X120374394Y-110311919D01*
X120485186Y-110231425D01*
X120485188Y-110231422D01*
X120485192Y-110231420D01*
X120635504Y-110081108D01*
X120635506Y-110081104D01*
X120635509Y-110081102D01*
X120760448Y-109909136D01*
X120760447Y-109909136D01*
X120760451Y-109909132D01*
X120856957Y-109719728D01*
X120896233Y-109598851D01*
X157396300Y-109598851D01*
X157396300Y-111394586D01*
X157396301Y-111394592D01*
X157402708Y-111454199D01*
X157453002Y-111589044D01*
X157453006Y-111589051D01*
X157539252Y-111704260D01*
X157539255Y-111704263D01*
X157654464Y-111790509D01*
X157654471Y-111790513D01*
X157789317Y-111840807D01*
X157789316Y-111840807D01*
X157796244Y-111841551D01*
X157848927Y-111847216D01*
X159644672Y-111847215D01*
X159704283Y-111840807D01*
X159839131Y-111790512D01*
X159954346Y-111704262D01*
X160040596Y-111589047D01*
X160090891Y-111454199D01*
X160097300Y-111394589D01*
X160097299Y-109598844D01*
X160090891Y-109539233D01*
X160090588Y-109538421D01*
X160040597Y-109404387D01*
X160040593Y-109404380D01*
X159954347Y-109289171D01*
X159954344Y-109289168D01*
X159839135Y-109202922D01*
X159839128Y-109202918D01*
X159704282Y-109152624D01*
X159704283Y-109152624D01*
X159644683Y-109146217D01*
X159644681Y-109146216D01*
X159644673Y-109146216D01*
X159644664Y-109146216D01*
X157848929Y-109146216D01*
X157848923Y-109146217D01*
X157789316Y-109152624D01*
X157654471Y-109202918D01*
X157654464Y-109202922D01*
X157539255Y-109289168D01*
X157539252Y-109289171D01*
X157453006Y-109404380D01*
X157453002Y-109404387D01*
X157402708Y-109539233D01*
X157396301Y-109598832D01*
X157396301Y-109598839D01*
X157396300Y-109598851D01*
X120896233Y-109598851D01*
X120922646Y-109517559D01*
X120955900Y-109307603D01*
X120955900Y-109095029D01*
X120922646Y-108885073D01*
X120856957Y-108682904D01*
X120760451Y-108493500D01*
X120760449Y-108493497D01*
X120760448Y-108493495D01*
X120635509Y-108321529D01*
X120521969Y-108207989D01*
X120488484Y-108146666D01*
X120493468Y-108076974D01*
X120535340Y-108021041D01*
X120566315Y-108004126D01*
X120697731Y-107955112D01*
X120812946Y-107868862D01*
X120899196Y-107753647D01*
X120949491Y-107618799D01*
X120955900Y-107559189D01*
X120955899Y-105763444D01*
X120949491Y-105703833D01*
X120925667Y-105639958D01*
X120899197Y-105568987D01*
X120899193Y-105568980D01*
X120812947Y-105453771D01*
X120812944Y-105453768D01*
X120697735Y-105367522D01*
X120697728Y-105367518D01*
X120562882Y-105317224D01*
X120562883Y-105317224D01*
X120503283Y-105310817D01*
X120503281Y-105310816D01*
X120503273Y-105310816D01*
X120503264Y-105310816D01*
X118707529Y-105310816D01*
X118707523Y-105310817D01*
X118647916Y-105317224D01*
X118513071Y-105367518D01*
X118513064Y-105367522D01*
X118397855Y-105453768D01*
X118397852Y-105453771D01*
X118311606Y-105568980D01*
X118311602Y-105568987D01*
X118261308Y-105703833D01*
X118254901Y-105763432D01*
X118254901Y-105763439D01*
X118254900Y-105763451D01*
X114813100Y-105763451D01*
X114813100Y-104518851D01*
X129456300Y-104518851D01*
X129456300Y-106314586D01*
X129456301Y-106314592D01*
X129462708Y-106374199D01*
X129513002Y-106509044D01*
X129513006Y-106509051D01*
X129599252Y-106624260D01*
X129599255Y-106624263D01*
X129714464Y-106710509D01*
X129714471Y-106710513D01*
X129849317Y-106760807D01*
X129849316Y-106760807D01*
X129856244Y-106761551D01*
X129908927Y-106767216D01*
X131704672Y-106767215D01*
X131764283Y-106760807D01*
X131899131Y-106710512D01*
X132014346Y-106624262D01*
X132032148Y-106600482D01*
X176921300Y-106600482D01*
X176921300Y-106772949D01*
X176954943Y-106942082D01*
X176954946Y-106942094D01*
X177020938Y-107101414D01*
X177020945Y-107101427D01*
X177116754Y-107244814D01*
X177116757Y-107244818D01*
X177238697Y-107366758D01*
X177238701Y-107366761D01*
X177382088Y-107462570D01*
X177382101Y-107462577D01*
X177541421Y-107528569D01*
X177541426Y-107528571D01*
X177695404Y-107559199D01*
X177710566Y-107562215D01*
X177710569Y-107562216D01*
X177710571Y-107562216D01*
X178067300Y-107562216D01*
X178134339Y-107581901D01*
X178180094Y-107634705D01*
X178191300Y-107686216D01*
X178191300Y-116932949D01*
X178224943Y-117102082D01*
X178224946Y-117102094D01*
X178290938Y-117261414D01*
X178290945Y-117261427D01*
X178386754Y-117404814D01*
X178386757Y-117404818D01*
X178508697Y-117526758D01*
X178508701Y-117526761D01*
X178652088Y-117622570D01*
X178652101Y-117622577D01*
X178811421Y-117688569D01*
X178811426Y-117688571D01*
X178980566Y-117722215D01*
X178980569Y-117722216D01*
X178980571Y-117722216D01*
X179153031Y-117722216D01*
X179153032Y-117722215D01*
X179322174Y-117688571D01*
X179481505Y-117622574D01*
X179624899Y-117526761D01*
X179746845Y-117404815D01*
X179842658Y-117261421D01*
X179908655Y-117102090D01*
X179942300Y-116932945D01*
X179942300Y-115490487D01*
X179942300Y-114220487D01*
X179942300Y-112950487D01*
X179942300Y-107870487D01*
X179942300Y-107686216D01*
X179961985Y-107619177D01*
X180014789Y-107573422D01*
X180066300Y-107562216D01*
X180423031Y-107562216D01*
X180423032Y-107562215D01*
X180592174Y-107528571D01*
X180751505Y-107462574D01*
X180894899Y-107366761D01*
X181016845Y-107244815D01*
X181112658Y-107101421D01*
X181162811Y-106980341D01*
X184065040Y-106980341D01*
X184065040Y-108776076D01*
X184065041Y-108776082D01*
X184071448Y-108835689D01*
X184121742Y-108970534D01*
X184121746Y-108970541D01*
X184207992Y-109085750D01*
X184207995Y-109085753D01*
X184323204Y-109171999D01*
X184323211Y-109172003D01*
X184454622Y-109221016D01*
X184510556Y-109262887D01*
X184534973Y-109328351D01*
X184520122Y-109396624D01*
X184498971Y-109424879D01*
X184385429Y-109538421D01*
X184260491Y-109710385D01*
X184163984Y-109899791D01*
X184098293Y-110101966D01*
X184065040Y-110311919D01*
X184065040Y-110524492D01*
X184094613Y-110711212D01*
X184098294Y-110734449D01*
X184139583Y-110861524D01*
X184163984Y-110936620D01*
X184260491Y-111126026D01*
X184385430Y-111297992D01*
X184535753Y-111448315D01*
X184707719Y-111573254D01*
X184707721Y-111573255D01*
X184707724Y-111573257D01*
X184717033Y-111578000D01*
X184767830Y-111625972D01*
X184784627Y-111693793D01*
X184762092Y-111759928D01*
X184717045Y-111798966D01*
X184707986Y-111803582D01*
X184707980Y-111803586D01*
X184653822Y-111842933D01*
X184653822Y-111842934D01*
X185286131Y-112475243D01*
X185222547Y-112492281D01*
X185108533Y-112558107D01*
X185015441Y-112651199D01*
X184949615Y-112765213D01*
X184932577Y-112828797D01*
X184300268Y-112196488D01*
X184300267Y-112196488D01*
X184260920Y-112250645D01*
X184164444Y-112439988D01*
X184098782Y-112642075D01*
X184098782Y-112642078D01*
X184065540Y-112851959D01*
X184065540Y-113064452D01*
X184098782Y-113274333D01*
X184098782Y-113274336D01*
X184164444Y-113476423D01*
X184260915Y-113665756D01*
X184300268Y-113719922D01*
X184932577Y-113087614D01*
X184949615Y-113151199D01*
X185015441Y-113265213D01*
X185108533Y-113358305D01*
X185222547Y-113424131D01*
X185286130Y-113441168D01*
X184653822Y-114073475D01*
X184653822Y-114073476D01*
X184707989Y-114112830D01*
X184897322Y-114209301D01*
X185099410Y-114274963D01*
X185309294Y-114308206D01*
X185521786Y-114308206D01*
X185731667Y-114274963D01*
X185731670Y-114274963D01*
X185933757Y-114209301D01*
X186123094Y-114112828D01*
X186177256Y-114073476D01*
X186177257Y-114073476D01*
X185544948Y-113441168D01*
X185608533Y-113424131D01*
X185722547Y-113358305D01*
X185815639Y-113265213D01*
X185881465Y-113151199D01*
X185898502Y-113087614D01*
X186530810Y-113719923D01*
X186530810Y-113719922D01*
X186570162Y-113665760D01*
X186666635Y-113476423D01*
X186732297Y-113274336D01*
X186732297Y-113274333D01*
X186765540Y-113064452D01*
X186765540Y-112851959D01*
X186732297Y-112642078D01*
X186732297Y-112642075D01*
X186666635Y-112439988D01*
X186570164Y-112250655D01*
X186530810Y-112196488D01*
X186530809Y-112196488D01*
X185898502Y-112828796D01*
X185881465Y-112765213D01*
X185815639Y-112651199D01*
X185722547Y-112558107D01*
X185608533Y-112492281D01*
X185544949Y-112475243D01*
X186177256Y-111842934D01*
X186123087Y-111803579D01*
X186123087Y-111803578D01*
X186114040Y-111798969D01*
X186063246Y-111750994D01*
X186046452Y-111683172D01*
X186068991Y-111617038D01*
X186114048Y-111577999D01*
X186123356Y-111573257D01*
X186202547Y-111515721D01*
X186295326Y-111448315D01*
X186295328Y-111448312D01*
X186295332Y-111448310D01*
X186445644Y-111297998D01*
X186445646Y-111297994D01*
X186445649Y-111297992D01*
X186570588Y-111126026D01*
X186570587Y-111126026D01*
X186570591Y-111126022D01*
X186667097Y-110936618D01*
X186732786Y-110734449D01*
X186766040Y-110524493D01*
X186766040Y-110311919D01*
X186732786Y-110101963D01*
X186667097Y-109899794D01*
X186570591Y-109710390D01*
X186570589Y-109710387D01*
X186570588Y-109710385D01*
X186445649Y-109538419D01*
X186332109Y-109424879D01*
X186298624Y-109363556D01*
X186303608Y-109293864D01*
X186345480Y-109237931D01*
X186376455Y-109221016D01*
X186507871Y-109172002D01*
X186623086Y-109085752D01*
X186709336Y-108970537D01*
X186759631Y-108835689D01*
X186766040Y-108776079D01*
X186766039Y-106980334D01*
X186759631Y-106920723D01*
X186709336Y-106785875D01*
X186709335Y-106785874D01*
X186709333Y-106785870D01*
X186623087Y-106670661D01*
X186623084Y-106670658D01*
X186507875Y-106584412D01*
X186507868Y-106584408D01*
X186373022Y-106534114D01*
X186373023Y-106534114D01*
X186313423Y-106527707D01*
X186313421Y-106527706D01*
X186313413Y-106527706D01*
X186313404Y-106527706D01*
X184517669Y-106527706D01*
X184517663Y-106527707D01*
X184458056Y-106534114D01*
X184323211Y-106584408D01*
X184323204Y-106584412D01*
X184207995Y-106670658D01*
X184207992Y-106670661D01*
X184121746Y-106785870D01*
X184121742Y-106785877D01*
X184071448Y-106920723D01*
X184065041Y-106980322D01*
X184065041Y-106980329D01*
X184065040Y-106980341D01*
X181162811Y-106980341D01*
X181178655Y-106942090D01*
X181212300Y-106772945D01*
X181212300Y-106600487D01*
X181212300Y-106600484D01*
X181212299Y-106600482D01*
X181199098Y-106534115D01*
X181178655Y-106431342D01*
X181130296Y-106314592D01*
X181112661Y-106272017D01*
X181112654Y-106272004D01*
X181016845Y-106128617D01*
X181016842Y-106128613D01*
X180894902Y-106006673D01*
X180894898Y-106006670D01*
X180751511Y-105910861D01*
X180751498Y-105910854D01*
X180592178Y-105844862D01*
X180592166Y-105844859D01*
X180423032Y-105811216D01*
X180423029Y-105811216D01*
X179153029Y-105811216D01*
X177710571Y-105811216D01*
X177710568Y-105811216D01*
X177541433Y-105844859D01*
X177541421Y-105844862D01*
X177382101Y-105910854D01*
X177382088Y-105910861D01*
X177238701Y-106006670D01*
X177238697Y-106006673D01*
X177116757Y-106128613D01*
X177116754Y-106128617D01*
X177020945Y-106272004D01*
X177020938Y-106272017D01*
X176954946Y-106431337D01*
X176954943Y-106431349D01*
X176921300Y-106600482D01*
X132032148Y-106600482D01*
X132100596Y-106509047D01*
X132150891Y-106374199D01*
X132157300Y-106314589D01*
X132157299Y-104518844D01*
X132150891Y-104459233D01*
X132100596Y-104324385D01*
X132100595Y-104324384D01*
X132100593Y-104324380D01*
X132014347Y-104209171D01*
X132014344Y-104209168D01*
X131899135Y-104122922D01*
X131899128Y-104122918D01*
X131764282Y-104072624D01*
X131764283Y-104072624D01*
X131704683Y-104066217D01*
X131704681Y-104066216D01*
X131704673Y-104066216D01*
X131704664Y-104066216D01*
X129908929Y-104066216D01*
X129908923Y-104066217D01*
X129849316Y-104072624D01*
X129714471Y-104122918D01*
X129714464Y-104122922D01*
X129599255Y-104209168D01*
X129599252Y-104209171D01*
X129513006Y-104324380D01*
X129513002Y-104324387D01*
X129462708Y-104459233D01*
X129456301Y-104518832D01*
X129456301Y-104518839D01*
X129456300Y-104518851D01*
X114813100Y-104518851D01*
X114813100Y-103391594D01*
X167197480Y-103391594D01*
X167197480Y-105187329D01*
X167197481Y-105187335D01*
X167203888Y-105246942D01*
X167254182Y-105381787D01*
X167254186Y-105381794D01*
X167340432Y-105497003D01*
X167340435Y-105497006D01*
X167455644Y-105583252D01*
X167455651Y-105583256D01*
X167590497Y-105633550D01*
X167590496Y-105633550D01*
X167597424Y-105634294D01*
X167650107Y-105639959D01*
X169445852Y-105639958D01*
X169505463Y-105633550D01*
X169640311Y-105583255D01*
X169755526Y-105497005D01*
X169841776Y-105381790D01*
X169892071Y-105246942D01*
X169898480Y-105187332D01*
X169898479Y-103391587D01*
X169892071Y-103331976D01*
X169875988Y-103288855D01*
X169861068Y-103248851D01*
X177716300Y-103248851D01*
X177716300Y-105044586D01*
X177716301Y-105044592D01*
X177722708Y-105104199D01*
X177773002Y-105239044D01*
X177773006Y-105239051D01*
X177859252Y-105354260D01*
X177859255Y-105354263D01*
X177974464Y-105440509D01*
X177974471Y-105440513D01*
X178109317Y-105490807D01*
X178109316Y-105490807D01*
X178116244Y-105491551D01*
X178168927Y-105497216D01*
X179964672Y-105497215D01*
X180024283Y-105490807D01*
X180159131Y-105440512D01*
X180274346Y-105354262D01*
X180360596Y-105239047D01*
X180410891Y-105104199D01*
X180417300Y-105044589D01*
X180417299Y-103248844D01*
X180410891Y-103189233D01*
X180370863Y-103081913D01*
X180360597Y-103054387D01*
X180360593Y-103054380D01*
X180274347Y-102939171D01*
X180274344Y-102939168D01*
X180159135Y-102852922D01*
X180159128Y-102852918D01*
X180024282Y-102802624D01*
X180024283Y-102802624D01*
X179964683Y-102796217D01*
X179964681Y-102796216D01*
X179964673Y-102796216D01*
X179964664Y-102796216D01*
X178168929Y-102796216D01*
X178168923Y-102796217D01*
X178109316Y-102802624D01*
X177974471Y-102852918D01*
X177974464Y-102852922D01*
X177859255Y-102939168D01*
X177859252Y-102939171D01*
X177773006Y-103054380D01*
X177773002Y-103054387D01*
X177722708Y-103189233D01*
X177716301Y-103248832D01*
X177716301Y-103248839D01*
X177716300Y-103248851D01*
X169861068Y-103248851D01*
X169841777Y-103197130D01*
X169841773Y-103197123D01*
X169755527Y-103081914D01*
X169755524Y-103081911D01*
X169640315Y-102995665D01*
X169640308Y-102995661D01*
X169505462Y-102945367D01*
X169505463Y-102945367D01*
X169445863Y-102938960D01*
X169445861Y-102938959D01*
X169445853Y-102938959D01*
X169445844Y-102938959D01*
X167650109Y-102938959D01*
X167650103Y-102938960D01*
X167590496Y-102945367D01*
X167455651Y-102995661D01*
X167455644Y-102995665D01*
X167340435Y-103081911D01*
X167340432Y-103081914D01*
X167254186Y-103197123D01*
X167254182Y-103197130D01*
X167203888Y-103331976D01*
X167197481Y-103391575D01*
X167197481Y-103391582D01*
X167197480Y-103391594D01*
X114813100Y-103391594D01*
X114813100Y-94358871D01*
X120566800Y-94358871D01*
X120566800Y-95006716D01*
X121483788Y-95006716D01*
X121450875Y-95063723D01*
X121416800Y-95190890D01*
X121416800Y-95322542D01*
X121450875Y-95449709D01*
X121483788Y-95506716D01*
X120566800Y-95506716D01*
X120566800Y-96154560D01*
X120573201Y-96214088D01*
X120573203Y-96214095D01*
X120623445Y-96348802D01*
X120623449Y-96348809D01*
X120709609Y-96463903D01*
X120709612Y-96463906D01*
X120824706Y-96550066D01*
X120824713Y-96550070D01*
X120959420Y-96600312D01*
X120959427Y-96600314D01*
X121018955Y-96606715D01*
X121018972Y-96606716D01*
X121666800Y-96606716D01*
X121666800Y-95689728D01*
X121723807Y-95722641D01*
X121850974Y-95756716D01*
X121982626Y-95756716D01*
X122109793Y-95722641D01*
X122166800Y-95689728D01*
X122166800Y-96606716D01*
X122814628Y-96606716D01*
X122814644Y-96606715D01*
X122874172Y-96600314D01*
X122874179Y-96600312D01*
X123008886Y-96550070D01*
X123008893Y-96550066D01*
X123123987Y-96463906D01*
X123123990Y-96463903D01*
X123210150Y-96348809D01*
X123210154Y-96348802D01*
X123260396Y-96214095D01*
X123260398Y-96214088D01*
X123266799Y-96154560D01*
X123266800Y-96154543D01*
X123266800Y-95810639D01*
X127291296Y-95810639D01*
X127291296Y-96189360D01*
X127328417Y-96566269D01*
X127402298Y-96937701D01*
X127402301Y-96937712D01*
X127512243Y-97300144D01*
X127657177Y-97650044D01*
X127657179Y-97650049D01*
X127835701Y-97984040D01*
X127835712Y-97984058D01*
X128046113Y-98298944D01*
X128046123Y-98298958D01*
X128286386Y-98591720D01*
X128554177Y-98859511D01*
X128554182Y-98859515D01*
X128554183Y-98859516D01*
X128846945Y-99099779D01*
X129161846Y-99310190D01*
X129161855Y-99310195D01*
X129161857Y-99310196D01*
X129495848Y-99488718D01*
X129495850Y-99488718D01*
X129495856Y-99488722D01*
X129845755Y-99633655D01*
X130208176Y-99743594D01*
X130208182Y-99743595D01*
X130208185Y-99743596D01*
X130208196Y-99743599D01*
X130579628Y-99817480D01*
X130956534Y-99854602D01*
X130956537Y-99854602D01*
X131335259Y-99854602D01*
X131335262Y-99854602D01*
X131712168Y-99817480D01*
X131784474Y-99803097D01*
X132083599Y-99743599D01*
X132083610Y-99743596D01*
X132083610Y-99743595D01*
X132083620Y-99743594D01*
X132446041Y-99633655D01*
X132795940Y-99488722D01*
X133129950Y-99310190D01*
X133444851Y-99099779D01*
X133737613Y-98859516D01*
X133783845Y-98813284D01*
X133855880Y-98741250D01*
X134005409Y-98591720D01*
X134005414Y-98591715D01*
X134245677Y-98298953D01*
X134456088Y-97984052D01*
X134634620Y-97650042D01*
X134779553Y-97300143D01*
X134889492Y-96937722D01*
X134889494Y-96937712D01*
X134889497Y-96937701D01*
X134963378Y-96566269D01*
X134963808Y-96561901D01*
X135000500Y-96189364D01*
X135000500Y-95960515D01*
X147557052Y-95960515D01*
X147557052Y-97756250D01*
X147557053Y-97756256D01*
X147563460Y-97815863D01*
X147613754Y-97950708D01*
X147613758Y-97950715D01*
X147700004Y-98065924D01*
X147700007Y-98065927D01*
X147815216Y-98152173D01*
X147815223Y-98152177D01*
X147950069Y-98202471D01*
X147950068Y-98202471D01*
X147956996Y-98203215D01*
X148009679Y-98208880D01*
X149805424Y-98208879D01*
X149865035Y-98202471D01*
X149999883Y-98152176D01*
X150115098Y-98065926D01*
X150201348Y-97950711D01*
X150251643Y-97815863D01*
X150258052Y-97756253D01*
X150258052Y-97694398D01*
X181576800Y-97694398D01*
X181576800Y-97899033D01*
X181608809Y-98101133D01*
X181672044Y-98295747D01*
X181764941Y-98478066D01*
X181764947Y-98478075D01*
X181797323Y-98522637D01*
X181797324Y-98522638D01*
X182476800Y-97843162D01*
X182476800Y-97849377D01*
X182504059Y-97951110D01*
X182556720Y-98042322D01*
X182631194Y-98116796D01*
X182722406Y-98169457D01*
X182824139Y-98196716D01*
X182830353Y-98196716D01*
X182150876Y-98876190D01*
X182195450Y-98908575D01*
X182377768Y-99001471D01*
X182572382Y-99064706D01*
X182774483Y-99096716D01*
X182979117Y-99096716D01*
X183181217Y-99064706D01*
X183375831Y-99001471D01*
X183558149Y-98908575D01*
X183602721Y-98876190D01*
X182923247Y-98196716D01*
X182929461Y-98196716D01*
X183031194Y-98169457D01*
X183122406Y-98116796D01*
X183196880Y-98042322D01*
X183249541Y-97951110D01*
X183276800Y-97849377D01*
X183276800Y-97843164D01*
X183956273Y-98522637D01*
X183994080Y-98519662D01*
X184062458Y-98534026D01*
X184112215Y-98583077D01*
X184121514Y-98604272D01*
X184141986Y-98666050D01*
X184234088Y-98815372D01*
X184358144Y-98939428D01*
X184507466Y-99031530D01*
X184674003Y-99086715D01*
X184776791Y-99097216D01*
X185976808Y-99097215D01*
X186079597Y-99086715D01*
X186246134Y-99031530D01*
X186395456Y-98939428D01*
X186519512Y-98815372D01*
X186611614Y-98666050D01*
X186666799Y-98499513D01*
X186677300Y-98396725D01*
X186677299Y-97196708D01*
X186666799Y-97093919D01*
X186611614Y-96927382D01*
X186519512Y-96778060D01*
X186395456Y-96654004D01*
X186246134Y-96561902D01*
X186079597Y-96506717D01*
X186079595Y-96506716D01*
X185976810Y-96496216D01*
X184776798Y-96496216D01*
X184776781Y-96496217D01*
X184674003Y-96506716D01*
X184674000Y-96506717D01*
X184507468Y-96561901D01*
X184507463Y-96561903D01*
X184358142Y-96654005D01*
X184234089Y-96778058D01*
X184141987Y-96927379D01*
X184141985Y-96927384D01*
X184121517Y-96989154D01*
X184081744Y-97046599D01*
X184017228Y-97073422D01*
X183994083Y-97073768D01*
X183956274Y-97070792D01*
X183276800Y-97750267D01*
X183276800Y-97744055D01*
X183249541Y-97642322D01*
X183196880Y-97551110D01*
X183122406Y-97476636D01*
X183031194Y-97423975D01*
X182929461Y-97396716D01*
X182923246Y-97396716D01*
X183602722Y-96717240D01*
X183602721Y-96717239D01*
X183558159Y-96684863D01*
X183558150Y-96684857D01*
X183375831Y-96591960D01*
X183181217Y-96528725D01*
X182979117Y-96496716D01*
X182774483Y-96496716D01*
X182572382Y-96528725D01*
X182377768Y-96591960D01*
X182195444Y-96684859D01*
X182150877Y-96717239D01*
X182150877Y-96717240D01*
X182830354Y-97396716D01*
X182824139Y-97396716D01*
X182722406Y-97423975D01*
X182631194Y-97476636D01*
X182556720Y-97551110D01*
X182504059Y-97642322D01*
X182476800Y-97744055D01*
X182476800Y-97750269D01*
X181797324Y-97070793D01*
X181797323Y-97070793D01*
X181764943Y-97115360D01*
X181672044Y-97297684D01*
X181608809Y-97492298D01*
X181576800Y-97694398D01*
X150258052Y-97694398D01*
X150258051Y-95960508D01*
X150251643Y-95900897D01*
X150201348Y-95766049D01*
X150201347Y-95766048D01*
X150201345Y-95766044D01*
X150115099Y-95650835D01*
X150115096Y-95650832D01*
X149999887Y-95564586D01*
X149999880Y-95564582D01*
X149865034Y-95514288D01*
X149865035Y-95514288D01*
X149805435Y-95507881D01*
X149805433Y-95507880D01*
X149805425Y-95507880D01*
X149805416Y-95507880D01*
X148009681Y-95507880D01*
X148009675Y-95507881D01*
X147950068Y-95514288D01*
X147815223Y-95564582D01*
X147815216Y-95564586D01*
X147700007Y-95650832D01*
X147700004Y-95650835D01*
X147613758Y-95766044D01*
X147613754Y-95766051D01*
X147563460Y-95900897D01*
X147557053Y-95960496D01*
X147557053Y-95960503D01*
X147557052Y-95960515D01*
X135000500Y-95960515D01*
X135000500Y-95810636D01*
X134963378Y-95433730D01*
X134889497Y-95062298D01*
X134889494Y-95062287D01*
X134889493Y-95062284D01*
X134889492Y-95062278D01*
X134779553Y-94699857D01*
X134634620Y-94349958D01*
X134500219Y-94098512D01*
X134456094Y-94015959D01*
X134456093Y-94015957D01*
X134456088Y-94015948D01*
X134245677Y-93701047D01*
X134005414Y-93408285D01*
X134005413Y-93408284D01*
X134005409Y-93408279D01*
X133737618Y-93140488D01*
X133444856Y-92900225D01*
X133444855Y-92900224D01*
X133444851Y-92900221D01*
X133129950Y-92689810D01*
X133129945Y-92689807D01*
X133129938Y-92689803D01*
X132795947Y-92511281D01*
X132795942Y-92511279D01*
X132446042Y-92366345D01*
X132083610Y-92256403D01*
X132083599Y-92256400D01*
X131712167Y-92182519D01*
X131428298Y-92154561D01*
X131335262Y-92145398D01*
X130956534Y-92145398D01*
X130870570Y-92153864D01*
X130579628Y-92182519D01*
X130208196Y-92256400D01*
X130208185Y-92256403D01*
X129845753Y-92366345D01*
X129495853Y-92511279D01*
X129495848Y-92511281D01*
X129161857Y-92689803D01*
X129161839Y-92689814D01*
X128846953Y-92900215D01*
X128846939Y-92900225D01*
X128554177Y-93140488D01*
X128286386Y-93408279D01*
X128046123Y-93701041D01*
X128046113Y-93701055D01*
X127835712Y-94015941D01*
X127835701Y-94015959D01*
X127657179Y-94349950D01*
X127657177Y-94349955D01*
X127512243Y-94699855D01*
X127402301Y-95062287D01*
X127402298Y-95062298D01*
X127328417Y-95433730D01*
X127307035Y-95650832D01*
X127295688Y-95766049D01*
X127291296Y-95810639D01*
X123266800Y-95810639D01*
X123266800Y-95506716D01*
X122349812Y-95506716D01*
X122382725Y-95449709D01*
X122416800Y-95322542D01*
X122416800Y-95190890D01*
X122382725Y-95063723D01*
X122349812Y-95006716D01*
X123266800Y-95006716D01*
X123266800Y-94358888D01*
X123266799Y-94358871D01*
X123260398Y-94299343D01*
X123260396Y-94299336D01*
X123210154Y-94164629D01*
X123210150Y-94164622D01*
X123123990Y-94049528D01*
X123123987Y-94049525D01*
X123008893Y-93963365D01*
X123008886Y-93963361D01*
X122874179Y-93913119D01*
X122874172Y-93913117D01*
X122814644Y-93906716D01*
X122166800Y-93906716D01*
X122166800Y-94823704D01*
X122109793Y-94790791D01*
X121982626Y-94756716D01*
X121850974Y-94756716D01*
X121723807Y-94790791D01*
X121666800Y-94823704D01*
X121666800Y-93906716D01*
X121018955Y-93906716D01*
X120959427Y-93913117D01*
X120959420Y-93913119D01*
X120824713Y-93963361D01*
X120824706Y-93963365D01*
X120709612Y-94049525D01*
X120709609Y-94049528D01*
X120623449Y-94164622D01*
X120623445Y-94164629D01*
X120573203Y-94299336D01*
X120573201Y-94299343D01*
X120566800Y-94358871D01*
X114813100Y-94358871D01*
X114813100Y-89532415D01*
X114832785Y-89465376D01*
X114885589Y-89419621D01*
X114937100Y-89408415D01*
X189862900Y-89408415D01*
X189929939Y-89428100D01*
G37*
%TD.AperFunction*%
%TD*%
M02*
