%TF.GenerationSoftware,KiCad,Pcbnew,9.0.5*%
%TF.CreationDate,2025-12-14T14:14:54+01:00*%
%TF.ProjectId,waage_ina155_ad8041,77616167-655f-4696-9e61-3135355f6164,rev?*%
%TF.SameCoordinates,Original*%
%TF.FileFunction,Paste,Top*%
%TF.FilePolarity,Positive*%
%FSLAX46Y46*%
G04 Gerber Fmt 4.6, Leading zero omitted, Abs format (unit mm)*
G04 Created by KiCad (PCBNEW 9.0.5) date 2025-12-14 14:14:54*
%MOMM*%
%LPD*%
G01*
G04 APERTURE LIST*
G04 Aperture macros list*
%AMRoundRect*
0 Rectangle with rounded corners*
0 $1 Rounding radius*
0 $2 $3 $4 $5 $6 $7 $8 $9 X,Y pos of 4 corners*
0 Add a 4 corners polygon primitive as box body*
4,1,4,$2,$3,$4,$5,$6,$7,$8,$9,$2,$3,0*
0 Add four circle primitives for the rounded corners*
1,1,$1+$1,$2,$3*
1,1,$1+$1,$4,$5*
1,1,$1+$1,$6,$7*
1,1,$1+$1,$8,$9*
0 Add four rect primitives between the rounded corners*
20,1,$1+$1,$2,$3,$4,$5,0*
20,1,$1+$1,$4,$5,$6,$7,0*
20,1,$1+$1,$6,$7,$8,$9,0*
20,1,$1+$1,$8,$9,$2,$3,0*%
G04 Aperture macros list end*
%ADD10RoundRect,0.237500X-0.250000X-0.237500X0.250000X-0.237500X0.250000X0.237500X-0.250000X0.237500X0*%
%ADD11RoundRect,0.150000X-0.725000X-0.150000X0.725000X-0.150000X0.725000X0.150000X-0.725000X0.150000X0*%
%ADD12RoundRect,0.237500X-0.300000X-0.237500X0.300000X-0.237500X0.300000X0.237500X-0.300000X0.237500X0*%
%ADD13RoundRect,0.237500X-0.237500X0.300000X-0.237500X-0.300000X0.237500X-0.300000X0.237500X0.300000X0*%
%ADD14RoundRect,0.237500X0.250000X0.237500X-0.250000X0.237500X-0.250000X-0.237500X0.250000X-0.237500X0*%
%ADD15RoundRect,0.237500X-0.237500X0.250000X-0.237500X-0.250000X0.237500X-0.250000X0.237500X0.250000X0*%
G04 APERTURE END LIST*
D10*
%TO.C,R6*%
X141903253Y-103912017D03*
X143728253Y-103912017D03*
%TD*%
%TO.C,R5*%
X166724300Y-110496716D03*
X168549300Y-110496716D03*
%TD*%
%TO.C,R3*%
X145480323Y-120656715D03*
X147305323Y-120656715D03*
%TD*%
D11*
%TO.C,U2*%
X163543105Y-94760892D03*
X163543105Y-96030892D03*
X163543105Y-97300892D03*
X163543105Y-98570892D03*
X168693105Y-98570892D03*
X168693105Y-97300892D03*
X168693105Y-96030892D03*
X168693105Y-94760892D03*
%TD*%
%TO.C,U3*%
X163780048Y-118720220D03*
X163780048Y-119990220D03*
X163780048Y-121260220D03*
X163780048Y-122530220D03*
X168930048Y-122530220D03*
X168930048Y-121260220D03*
X168930048Y-119990220D03*
X168930048Y-118720220D03*
%TD*%
D12*
%TO.C,C4*%
X152098399Y-109560059D03*
X153823399Y-109560059D03*
%TD*%
D10*
%TO.C,R2*%
X153810605Y-101110892D03*
X155635605Y-101110892D03*
%TD*%
D13*
%TO.C,C3*%
X176706491Y-119998666D03*
X176706491Y-121723666D03*
%TD*%
%TO.C,C2*%
X173985121Y-96039387D03*
X173985121Y-97764387D03*
%TD*%
D14*
%TO.C,R4*%
X154579300Y-116846716D03*
X152754300Y-116846716D03*
%TD*%
D11*
%TO.C,U1*%
X140204913Y-108513407D03*
X140204913Y-109783407D03*
X140204913Y-111053407D03*
X140204913Y-112323407D03*
X145354913Y-112323407D03*
X145354913Y-111053407D03*
X145354913Y-109783407D03*
X145354913Y-108513407D03*
%TD*%
D15*
%TO.C,R1*%
X154723105Y-91308392D03*
X154723105Y-93133392D03*
%TD*%
M02*
