%TF.GenerationSoftware,KiCad,Pcbnew,9.0.5*%
%TF.CreationDate,2025-12-14T14:14:54+01:00*%
%TF.ProjectId,waage_ina155_ad8041,77616167-655f-4696-9e61-3135355f6164,rev?*%
%TF.SameCoordinates,Original*%
%TF.FileFunction,Legend,Top*%
%TF.FilePolarity,Positive*%
%FSLAX46Y46*%
G04 Gerber Fmt 4.6, Leading zero omitted, Abs format (unit mm)*
G04 Created by KiCad (PCBNEW 9.0.5) date 2025-12-14 14:14:54*
%MOMM*%
%LPD*%
G01*
G04 APERTURE LIST*
%ADD10C,0.100000*%
%ADD11C,0.150000*%
%ADD12C,0.120000*%
G04 APERTURE END LIST*
D10*
X122277370Y-114011681D02*
X122182132Y-113964062D01*
X122182132Y-113964062D02*
X122039275Y-113964062D01*
X122039275Y-113964062D02*
X121896418Y-114011681D01*
X121896418Y-114011681D02*
X121801180Y-114106919D01*
X121801180Y-114106919D02*
X121753561Y-114202157D01*
X121753561Y-114202157D02*
X121705942Y-114392633D01*
X121705942Y-114392633D02*
X121705942Y-114535490D01*
X121705942Y-114535490D02*
X121753561Y-114725966D01*
X121753561Y-114725966D02*
X121801180Y-114821204D01*
X121801180Y-114821204D02*
X121896418Y-114916443D01*
X121896418Y-114916443D02*
X122039275Y-114964062D01*
X122039275Y-114964062D02*
X122134513Y-114964062D01*
X122134513Y-114964062D02*
X122277370Y-114916443D01*
X122277370Y-114916443D02*
X122324989Y-114868823D01*
X122324989Y-114868823D02*
X122324989Y-114535490D01*
X122324989Y-114535490D02*
X122134513Y-114535490D01*
X122753561Y-114964062D02*
X122753561Y-113964062D01*
X122753561Y-113964062D02*
X123324989Y-114964062D01*
X123324989Y-114964062D02*
X123324989Y-113964062D01*
X123801180Y-114964062D02*
X123801180Y-113964062D01*
X123801180Y-113964062D02*
X124039275Y-113964062D01*
X124039275Y-113964062D02*
X124182132Y-114011681D01*
X124182132Y-114011681D02*
X124277370Y-114106919D01*
X124277370Y-114106919D02*
X124324989Y-114202157D01*
X124324989Y-114202157D02*
X124372608Y-114392633D01*
X124372608Y-114392633D02*
X124372608Y-114535490D01*
X124372608Y-114535490D02*
X124324989Y-114725966D01*
X124324989Y-114725966D02*
X124277370Y-114821204D01*
X124277370Y-114821204D02*
X124182132Y-114916443D01*
X124182132Y-114916443D02*
X124039275Y-114964062D01*
X124039275Y-114964062D02*
X123801180Y-114964062D01*
X121557677Y-106113713D02*
X122176724Y-106113713D01*
X122176724Y-106113713D02*
X121843391Y-106494665D01*
X121843391Y-106494665D02*
X121986248Y-106494665D01*
X121986248Y-106494665D02*
X122081486Y-106542284D01*
X122081486Y-106542284D02*
X122129105Y-106589903D01*
X122129105Y-106589903D02*
X122176724Y-106685141D01*
X122176724Y-106685141D02*
X122176724Y-106923236D01*
X122176724Y-106923236D02*
X122129105Y-107018474D01*
X122129105Y-107018474D02*
X122081486Y-107066094D01*
X122081486Y-107066094D02*
X121986248Y-107113713D01*
X121986248Y-107113713D02*
X121700534Y-107113713D01*
X121700534Y-107113713D02*
X121605296Y-107066094D01*
X121605296Y-107066094D02*
X121557677Y-107018474D01*
X122462439Y-106113713D02*
X122795772Y-107113713D01*
X122795772Y-107113713D02*
X123129105Y-106113713D01*
X123367201Y-106113713D02*
X123986248Y-106113713D01*
X123986248Y-106113713D02*
X123652915Y-106494665D01*
X123652915Y-106494665D02*
X123795772Y-106494665D01*
X123795772Y-106494665D02*
X123891010Y-106542284D01*
X123891010Y-106542284D02*
X123938629Y-106589903D01*
X123938629Y-106589903D02*
X123986248Y-106685141D01*
X123986248Y-106685141D02*
X123986248Y-106923236D01*
X123986248Y-106923236D02*
X123938629Y-107018474D01*
X123938629Y-107018474D02*
X123891010Y-107066094D01*
X123891010Y-107066094D02*
X123795772Y-107113713D01*
X123795772Y-107113713D02*
X123510058Y-107113713D01*
X123510058Y-107113713D02*
X123414820Y-107066094D01*
X123414820Y-107066094D02*
X123367201Y-107018474D01*
X181201554Y-107504659D02*
X181820601Y-107504659D01*
X181820601Y-107504659D02*
X181487268Y-107885611D01*
X181487268Y-107885611D02*
X181630125Y-107885611D01*
X181630125Y-107885611D02*
X181725363Y-107933230D01*
X181725363Y-107933230D02*
X181772982Y-107980849D01*
X181772982Y-107980849D02*
X181820601Y-108076087D01*
X181820601Y-108076087D02*
X181820601Y-108314182D01*
X181820601Y-108314182D02*
X181772982Y-108409420D01*
X181772982Y-108409420D02*
X181725363Y-108457040D01*
X181725363Y-108457040D02*
X181630125Y-108504659D01*
X181630125Y-108504659D02*
X181344411Y-108504659D01*
X181344411Y-108504659D02*
X181249173Y-108457040D01*
X181249173Y-108457040D02*
X181201554Y-108409420D01*
X182106316Y-107504659D02*
X182439649Y-108504659D01*
X182439649Y-108504659D02*
X182772982Y-107504659D01*
X183011078Y-107504659D02*
X183630125Y-107504659D01*
X183630125Y-107504659D02*
X183296792Y-107885611D01*
X183296792Y-107885611D02*
X183439649Y-107885611D01*
X183439649Y-107885611D02*
X183534887Y-107933230D01*
X183534887Y-107933230D02*
X183582506Y-107980849D01*
X183582506Y-107980849D02*
X183630125Y-108076087D01*
X183630125Y-108076087D02*
X183630125Y-108314182D01*
X183630125Y-108314182D02*
X183582506Y-108409420D01*
X183582506Y-108409420D02*
X183534887Y-108457040D01*
X183534887Y-108457040D02*
X183439649Y-108504659D01*
X183439649Y-108504659D02*
X183153935Y-108504659D01*
X183153935Y-108504659D02*
X183058697Y-108457040D01*
X183058697Y-108457040D02*
X183011078Y-108409420D01*
X181669632Y-112651650D02*
X181574394Y-112604031D01*
X181574394Y-112604031D02*
X181431537Y-112604031D01*
X181431537Y-112604031D02*
X181288680Y-112651650D01*
X181288680Y-112651650D02*
X181193442Y-112746888D01*
X181193442Y-112746888D02*
X181145823Y-112842126D01*
X181145823Y-112842126D02*
X181098204Y-113032602D01*
X181098204Y-113032602D02*
X181098204Y-113175459D01*
X181098204Y-113175459D02*
X181145823Y-113365935D01*
X181145823Y-113365935D02*
X181193442Y-113461173D01*
X181193442Y-113461173D02*
X181288680Y-113556412D01*
X181288680Y-113556412D02*
X181431537Y-113604031D01*
X181431537Y-113604031D02*
X181526775Y-113604031D01*
X181526775Y-113604031D02*
X181669632Y-113556412D01*
X181669632Y-113556412D02*
X181717251Y-113508792D01*
X181717251Y-113508792D02*
X181717251Y-113175459D01*
X181717251Y-113175459D02*
X181526775Y-113175459D01*
X182145823Y-113604031D02*
X182145823Y-112604031D01*
X182145823Y-112604031D02*
X182717251Y-113604031D01*
X182717251Y-113604031D02*
X182717251Y-112604031D01*
X183193442Y-113604031D02*
X183193442Y-112604031D01*
X183193442Y-112604031D02*
X183431537Y-112604031D01*
X183431537Y-112604031D02*
X183574394Y-112651650D01*
X183574394Y-112651650D02*
X183669632Y-112746888D01*
X183669632Y-112746888D02*
X183717251Y-112842126D01*
X183717251Y-112842126D02*
X183764870Y-113032602D01*
X183764870Y-113032602D02*
X183764870Y-113175459D01*
X183764870Y-113175459D02*
X183717251Y-113365935D01*
X183717251Y-113365935D02*
X183669632Y-113461173D01*
X183669632Y-113461173D02*
X183574394Y-113556412D01*
X183574394Y-113556412D02*
X183431537Y-113604031D01*
X183431537Y-113604031D02*
X183193442Y-113604031D01*
X176998785Y-109817253D02*
X177236880Y-109817253D01*
X176951166Y-109960110D02*
X177117832Y-109460110D01*
X177117832Y-109460110D02*
X177284499Y-109960110D01*
X177451165Y-109960110D02*
X177451165Y-109460110D01*
X177451165Y-109460110D02*
X177736879Y-109960110D01*
X177736879Y-109960110D02*
X177736879Y-109460110D01*
X177951166Y-109817253D02*
X178189261Y-109817253D01*
X177903547Y-109960110D02*
X178070213Y-109460110D01*
X178070213Y-109460110D02*
X178236880Y-109960110D01*
X178641641Y-109960110D02*
X178403546Y-109960110D01*
X178403546Y-109960110D02*
X178403546Y-109460110D01*
X178903546Y-109460110D02*
X178998784Y-109460110D01*
X178998784Y-109460110D02*
X179046403Y-109483920D01*
X179046403Y-109483920D02*
X179094022Y-109531539D01*
X179094022Y-109531539D02*
X179117832Y-109626777D01*
X179117832Y-109626777D02*
X179117832Y-109793443D01*
X179117832Y-109793443D02*
X179094022Y-109888681D01*
X179094022Y-109888681D02*
X179046403Y-109936301D01*
X179046403Y-109936301D02*
X178998784Y-109960110D01*
X178998784Y-109960110D02*
X178903546Y-109960110D01*
X178903546Y-109960110D02*
X178855927Y-109936301D01*
X178855927Y-109936301D02*
X178808308Y-109888681D01*
X178808308Y-109888681D02*
X178784499Y-109793443D01*
X178784499Y-109793443D02*
X178784499Y-109626777D01*
X178784499Y-109626777D02*
X178808308Y-109531539D01*
X178808308Y-109531539D02*
X178855927Y-109483920D01*
X178855927Y-109483920D02*
X178903546Y-109460110D01*
X179594023Y-109483920D02*
X179546404Y-109460110D01*
X179546404Y-109460110D02*
X179474975Y-109460110D01*
X179474975Y-109460110D02*
X179403547Y-109483920D01*
X179403547Y-109483920D02*
X179355928Y-109531539D01*
X179355928Y-109531539D02*
X179332118Y-109579158D01*
X179332118Y-109579158D02*
X179308309Y-109674396D01*
X179308309Y-109674396D02*
X179308309Y-109745824D01*
X179308309Y-109745824D02*
X179332118Y-109841062D01*
X179332118Y-109841062D02*
X179355928Y-109888681D01*
X179355928Y-109888681D02*
X179403547Y-109936301D01*
X179403547Y-109936301D02*
X179474975Y-109960110D01*
X179474975Y-109960110D02*
X179522594Y-109960110D01*
X179522594Y-109960110D02*
X179594023Y-109936301D01*
X179594023Y-109936301D02*
X179617832Y-109912491D01*
X179617832Y-109912491D02*
X179617832Y-109745824D01*
X179617832Y-109745824D02*
X179522594Y-109745824D01*
X179832118Y-109769634D02*
X180213071Y-109769634D01*
X180546404Y-109460110D02*
X180641642Y-109460110D01*
X180641642Y-109460110D02*
X180689261Y-109483920D01*
X180689261Y-109483920D02*
X180736880Y-109531539D01*
X180736880Y-109531539D02*
X180760690Y-109626777D01*
X180760690Y-109626777D02*
X180760690Y-109793443D01*
X180760690Y-109793443D02*
X180736880Y-109888681D01*
X180736880Y-109888681D02*
X180689261Y-109936301D01*
X180689261Y-109936301D02*
X180641642Y-109960110D01*
X180641642Y-109960110D02*
X180546404Y-109960110D01*
X180546404Y-109960110D02*
X180498785Y-109936301D01*
X180498785Y-109936301D02*
X180451166Y-109888681D01*
X180451166Y-109888681D02*
X180427357Y-109793443D01*
X180427357Y-109793443D02*
X180427357Y-109626777D01*
X180427357Y-109626777D02*
X180451166Y-109531539D01*
X180451166Y-109531539D02*
X180498785Y-109483920D01*
X180498785Y-109483920D02*
X180546404Y-109460110D01*
X180974976Y-109460110D02*
X180974976Y-109864872D01*
X180974976Y-109864872D02*
X180998786Y-109912491D01*
X180998786Y-109912491D02*
X181022595Y-109936301D01*
X181022595Y-109936301D02*
X181070214Y-109960110D01*
X181070214Y-109960110D02*
X181165452Y-109960110D01*
X181165452Y-109960110D02*
X181213071Y-109936301D01*
X181213071Y-109936301D02*
X181236881Y-109912491D01*
X181236881Y-109912491D02*
X181260690Y-109864872D01*
X181260690Y-109864872D02*
X181260690Y-109460110D01*
X181427358Y-109460110D02*
X181713072Y-109460110D01*
X181570215Y-109960110D02*
X181570215Y-109460110D01*
X119135425Y-127358382D02*
X119087806Y-127334572D01*
X119087806Y-127334572D02*
X119016377Y-127334572D01*
X119016377Y-127334572D02*
X118944949Y-127358382D01*
X118944949Y-127358382D02*
X118897330Y-127406001D01*
X118897330Y-127406001D02*
X118873520Y-127453620D01*
X118873520Y-127453620D02*
X118849711Y-127548858D01*
X118849711Y-127548858D02*
X118849711Y-127620286D01*
X118849711Y-127620286D02*
X118873520Y-127715524D01*
X118873520Y-127715524D02*
X118897330Y-127763143D01*
X118897330Y-127763143D02*
X118944949Y-127810763D01*
X118944949Y-127810763D02*
X119016377Y-127834572D01*
X119016377Y-127834572D02*
X119063996Y-127834572D01*
X119063996Y-127834572D02*
X119135425Y-127810763D01*
X119135425Y-127810763D02*
X119159234Y-127786953D01*
X119159234Y-127786953D02*
X119159234Y-127620286D01*
X119159234Y-127620286D02*
X119063996Y-127620286D01*
X119373520Y-127834572D02*
X119373520Y-127334572D01*
X119373520Y-127334572D02*
X119659234Y-127834572D01*
X119659234Y-127834572D02*
X119659234Y-127334572D01*
X119897330Y-127834572D02*
X119897330Y-127334572D01*
X119897330Y-127334572D02*
X120016378Y-127334572D01*
X120016378Y-127334572D02*
X120087806Y-127358382D01*
X120087806Y-127358382D02*
X120135425Y-127406001D01*
X120135425Y-127406001D02*
X120159235Y-127453620D01*
X120159235Y-127453620D02*
X120183044Y-127548858D01*
X120183044Y-127548858D02*
X120183044Y-127620286D01*
X120183044Y-127620286D02*
X120159235Y-127715524D01*
X120159235Y-127715524D02*
X120135425Y-127763143D01*
X120135425Y-127763143D02*
X120087806Y-127810763D01*
X120087806Y-127810763D02*
X120016378Y-127834572D01*
X120016378Y-127834572D02*
X119897330Y-127834572D01*
X164761069Y-100712624D02*
X164999164Y-100712624D01*
X164713450Y-100855481D02*
X164880116Y-100355481D01*
X164880116Y-100355481D02*
X165046783Y-100855481D01*
X165213449Y-100855481D02*
X165213449Y-100355481D01*
X165213449Y-100355481D02*
X165332497Y-100355481D01*
X165332497Y-100355481D02*
X165403925Y-100379291D01*
X165403925Y-100379291D02*
X165451544Y-100426910D01*
X165451544Y-100426910D02*
X165475354Y-100474529D01*
X165475354Y-100474529D02*
X165499163Y-100569767D01*
X165499163Y-100569767D02*
X165499163Y-100641195D01*
X165499163Y-100641195D02*
X165475354Y-100736433D01*
X165475354Y-100736433D02*
X165451544Y-100784052D01*
X165451544Y-100784052D02*
X165403925Y-100831672D01*
X165403925Y-100831672D02*
X165332497Y-100855481D01*
X165332497Y-100855481D02*
X165213449Y-100855481D01*
X165784878Y-100569767D02*
X165737259Y-100545957D01*
X165737259Y-100545957D02*
X165713449Y-100522148D01*
X165713449Y-100522148D02*
X165689640Y-100474529D01*
X165689640Y-100474529D02*
X165689640Y-100450719D01*
X165689640Y-100450719D02*
X165713449Y-100403100D01*
X165713449Y-100403100D02*
X165737259Y-100379291D01*
X165737259Y-100379291D02*
X165784878Y-100355481D01*
X165784878Y-100355481D02*
X165880116Y-100355481D01*
X165880116Y-100355481D02*
X165927735Y-100379291D01*
X165927735Y-100379291D02*
X165951544Y-100403100D01*
X165951544Y-100403100D02*
X165975354Y-100450719D01*
X165975354Y-100450719D02*
X165975354Y-100474529D01*
X165975354Y-100474529D02*
X165951544Y-100522148D01*
X165951544Y-100522148D02*
X165927735Y-100545957D01*
X165927735Y-100545957D02*
X165880116Y-100569767D01*
X165880116Y-100569767D02*
X165784878Y-100569767D01*
X165784878Y-100569767D02*
X165737259Y-100593576D01*
X165737259Y-100593576D02*
X165713449Y-100617386D01*
X165713449Y-100617386D02*
X165689640Y-100665005D01*
X165689640Y-100665005D02*
X165689640Y-100760243D01*
X165689640Y-100760243D02*
X165713449Y-100807862D01*
X165713449Y-100807862D02*
X165737259Y-100831672D01*
X165737259Y-100831672D02*
X165784878Y-100855481D01*
X165784878Y-100855481D02*
X165880116Y-100855481D01*
X165880116Y-100855481D02*
X165927735Y-100831672D01*
X165927735Y-100831672D02*
X165951544Y-100807862D01*
X165951544Y-100807862D02*
X165975354Y-100760243D01*
X165975354Y-100760243D02*
X165975354Y-100665005D01*
X165975354Y-100665005D02*
X165951544Y-100617386D01*
X165951544Y-100617386D02*
X165927735Y-100593576D01*
X165927735Y-100593576D02*
X165880116Y-100569767D01*
X166284877Y-100355481D02*
X166332496Y-100355481D01*
X166332496Y-100355481D02*
X166380115Y-100379291D01*
X166380115Y-100379291D02*
X166403925Y-100403100D01*
X166403925Y-100403100D02*
X166427734Y-100450719D01*
X166427734Y-100450719D02*
X166451544Y-100545957D01*
X166451544Y-100545957D02*
X166451544Y-100665005D01*
X166451544Y-100665005D02*
X166427734Y-100760243D01*
X166427734Y-100760243D02*
X166403925Y-100807862D01*
X166403925Y-100807862D02*
X166380115Y-100831672D01*
X166380115Y-100831672D02*
X166332496Y-100855481D01*
X166332496Y-100855481D02*
X166284877Y-100855481D01*
X166284877Y-100855481D02*
X166237258Y-100831672D01*
X166237258Y-100831672D02*
X166213449Y-100807862D01*
X166213449Y-100807862D02*
X166189639Y-100760243D01*
X166189639Y-100760243D02*
X166165830Y-100665005D01*
X166165830Y-100665005D02*
X166165830Y-100545957D01*
X166165830Y-100545957D02*
X166189639Y-100450719D01*
X166189639Y-100450719D02*
X166213449Y-100403100D01*
X166213449Y-100403100D02*
X166237258Y-100379291D01*
X166237258Y-100379291D02*
X166284877Y-100355481D01*
X166880115Y-100522148D02*
X166880115Y-100855481D01*
X166761067Y-100331672D02*
X166642020Y-100688814D01*
X166642020Y-100688814D02*
X166951543Y-100688814D01*
X167403924Y-100855481D02*
X167118210Y-100855481D01*
X167261067Y-100855481D02*
X167261067Y-100355481D01*
X167261067Y-100355481D02*
X167213448Y-100426910D01*
X167213448Y-100426910D02*
X167165829Y-100474529D01*
X167165829Y-100474529D02*
X167118210Y-100498338D01*
X140926601Y-114715576D02*
X140926601Y-114215576D01*
X141164696Y-114715576D02*
X141164696Y-114215576D01*
X141164696Y-114215576D02*
X141450410Y-114715576D01*
X141450410Y-114715576D02*
X141450410Y-114215576D01*
X141664697Y-114572719D02*
X141902792Y-114572719D01*
X141617078Y-114715576D02*
X141783744Y-114215576D01*
X141783744Y-114215576D02*
X141950411Y-114715576D01*
X142378982Y-114715576D02*
X142093268Y-114715576D01*
X142236125Y-114715576D02*
X142236125Y-114215576D01*
X142236125Y-114215576D02*
X142188506Y-114287005D01*
X142188506Y-114287005D02*
X142140887Y-114334624D01*
X142140887Y-114334624D02*
X142093268Y-114358433D01*
X142831362Y-114215576D02*
X142593267Y-114215576D01*
X142593267Y-114215576D02*
X142569458Y-114453671D01*
X142569458Y-114453671D02*
X142593267Y-114429862D01*
X142593267Y-114429862D02*
X142640886Y-114406052D01*
X142640886Y-114406052D02*
X142759934Y-114406052D01*
X142759934Y-114406052D02*
X142807553Y-114429862D01*
X142807553Y-114429862D02*
X142831362Y-114453671D01*
X142831362Y-114453671D02*
X142855172Y-114501290D01*
X142855172Y-114501290D02*
X142855172Y-114620338D01*
X142855172Y-114620338D02*
X142831362Y-114667957D01*
X142831362Y-114667957D02*
X142807553Y-114691767D01*
X142807553Y-114691767D02*
X142759934Y-114715576D01*
X142759934Y-114715576D02*
X142640886Y-114715576D01*
X142640886Y-114715576D02*
X142593267Y-114691767D01*
X142593267Y-114691767D02*
X142569458Y-114667957D01*
X143307552Y-114215576D02*
X143069457Y-114215576D01*
X143069457Y-114215576D02*
X143045648Y-114453671D01*
X143045648Y-114453671D02*
X143069457Y-114429862D01*
X143069457Y-114429862D02*
X143117076Y-114406052D01*
X143117076Y-114406052D02*
X143236124Y-114406052D01*
X143236124Y-114406052D02*
X143283743Y-114429862D01*
X143283743Y-114429862D02*
X143307552Y-114453671D01*
X143307552Y-114453671D02*
X143331362Y-114501290D01*
X143331362Y-114501290D02*
X143331362Y-114620338D01*
X143331362Y-114620338D02*
X143307552Y-114667957D01*
X143307552Y-114667957D02*
X143283743Y-114691767D01*
X143283743Y-114691767D02*
X143236124Y-114715576D01*
X143236124Y-114715576D02*
X143117076Y-114715576D01*
X143117076Y-114715576D02*
X143069457Y-114691767D01*
X143069457Y-114691767D02*
X143045648Y-114667957D01*
X123094883Y-110335040D02*
X123571073Y-110335040D01*
X122999645Y-110620755D02*
X123332978Y-109620755D01*
X123332978Y-109620755D02*
X123666311Y-110620755D01*
X123999645Y-110239802D02*
X124761550Y-110239802D01*
X124380597Y-110620755D02*
X124380597Y-109858850D01*
X150748703Y-127101306D02*
X150701084Y-127077496D01*
X150701084Y-127077496D02*
X150629655Y-127077496D01*
X150629655Y-127077496D02*
X150558227Y-127101306D01*
X150558227Y-127101306D02*
X150510608Y-127148925D01*
X150510608Y-127148925D02*
X150486798Y-127196544D01*
X150486798Y-127196544D02*
X150462989Y-127291782D01*
X150462989Y-127291782D02*
X150462989Y-127363210D01*
X150462989Y-127363210D02*
X150486798Y-127458448D01*
X150486798Y-127458448D02*
X150510608Y-127506067D01*
X150510608Y-127506067D02*
X150558227Y-127553687D01*
X150558227Y-127553687D02*
X150629655Y-127577496D01*
X150629655Y-127577496D02*
X150677274Y-127577496D01*
X150677274Y-127577496D02*
X150748703Y-127553687D01*
X150748703Y-127553687D02*
X150772512Y-127529877D01*
X150772512Y-127529877D02*
X150772512Y-127363210D01*
X150772512Y-127363210D02*
X150677274Y-127363210D01*
X150986798Y-127577496D02*
X150986798Y-127077496D01*
X150986798Y-127077496D02*
X151272512Y-127577496D01*
X151272512Y-127577496D02*
X151272512Y-127077496D01*
X151510608Y-127577496D02*
X151510608Y-127077496D01*
X151510608Y-127077496D02*
X151629656Y-127077496D01*
X151629656Y-127077496D02*
X151701084Y-127101306D01*
X151701084Y-127101306D02*
X151748703Y-127148925D01*
X151748703Y-127148925D02*
X151772513Y-127196544D01*
X151772513Y-127196544D02*
X151796322Y-127291782D01*
X151796322Y-127291782D02*
X151796322Y-127363210D01*
X151796322Y-127363210D02*
X151772513Y-127458448D01*
X151772513Y-127458448D02*
X151748703Y-127506067D01*
X151748703Y-127506067D02*
X151701084Y-127553687D01*
X151701084Y-127553687D02*
X151629656Y-127577496D01*
X151629656Y-127577496D02*
X151510608Y-127577496D01*
X119088404Y-94701955D02*
X119040785Y-94678145D01*
X119040785Y-94678145D02*
X118969356Y-94678145D01*
X118969356Y-94678145D02*
X118897928Y-94701955D01*
X118897928Y-94701955D02*
X118850309Y-94749574D01*
X118850309Y-94749574D02*
X118826499Y-94797193D01*
X118826499Y-94797193D02*
X118802690Y-94892431D01*
X118802690Y-94892431D02*
X118802690Y-94963859D01*
X118802690Y-94963859D02*
X118826499Y-95059097D01*
X118826499Y-95059097D02*
X118850309Y-95106716D01*
X118850309Y-95106716D02*
X118897928Y-95154336D01*
X118897928Y-95154336D02*
X118969356Y-95178145D01*
X118969356Y-95178145D02*
X119016975Y-95178145D01*
X119016975Y-95178145D02*
X119088404Y-95154336D01*
X119088404Y-95154336D02*
X119112213Y-95130526D01*
X119112213Y-95130526D02*
X119112213Y-94963859D01*
X119112213Y-94963859D02*
X119016975Y-94963859D01*
X119326499Y-95178145D02*
X119326499Y-94678145D01*
X119326499Y-94678145D02*
X119612213Y-95178145D01*
X119612213Y-95178145D02*
X119612213Y-94678145D01*
X119850309Y-95178145D02*
X119850309Y-94678145D01*
X119850309Y-94678145D02*
X119969357Y-94678145D01*
X119969357Y-94678145D02*
X120040785Y-94701955D01*
X120040785Y-94701955D02*
X120088404Y-94749574D01*
X120088404Y-94749574D02*
X120112214Y-94797193D01*
X120112214Y-94797193D02*
X120136023Y-94892431D01*
X120136023Y-94892431D02*
X120136023Y-94963859D01*
X120136023Y-94963859D02*
X120112214Y-95059097D01*
X120112214Y-95059097D02*
X120088404Y-95106716D01*
X120088404Y-95106716D02*
X120040785Y-95154336D01*
X120040785Y-95154336D02*
X119969357Y-95178145D01*
X119969357Y-95178145D02*
X119850309Y-95178145D01*
X179855007Y-127211022D02*
X179807388Y-127187212D01*
X179807388Y-127187212D02*
X179735959Y-127187212D01*
X179735959Y-127187212D02*
X179664531Y-127211022D01*
X179664531Y-127211022D02*
X179616912Y-127258641D01*
X179616912Y-127258641D02*
X179593102Y-127306260D01*
X179593102Y-127306260D02*
X179569293Y-127401498D01*
X179569293Y-127401498D02*
X179569293Y-127472926D01*
X179569293Y-127472926D02*
X179593102Y-127568164D01*
X179593102Y-127568164D02*
X179616912Y-127615783D01*
X179616912Y-127615783D02*
X179664531Y-127663403D01*
X179664531Y-127663403D02*
X179735959Y-127687212D01*
X179735959Y-127687212D02*
X179783578Y-127687212D01*
X179783578Y-127687212D02*
X179855007Y-127663403D01*
X179855007Y-127663403D02*
X179878816Y-127639593D01*
X179878816Y-127639593D02*
X179878816Y-127472926D01*
X179878816Y-127472926D02*
X179783578Y-127472926D01*
X180093102Y-127687212D02*
X180093102Y-127187212D01*
X180093102Y-127187212D02*
X180378816Y-127687212D01*
X180378816Y-127687212D02*
X180378816Y-127187212D01*
X180616912Y-127687212D02*
X180616912Y-127187212D01*
X180616912Y-127187212D02*
X180735960Y-127187212D01*
X180735960Y-127187212D02*
X180807388Y-127211022D01*
X180807388Y-127211022D02*
X180855007Y-127258641D01*
X180855007Y-127258641D02*
X180878817Y-127306260D01*
X180878817Y-127306260D02*
X180902626Y-127401498D01*
X180902626Y-127401498D02*
X180902626Y-127472926D01*
X180902626Y-127472926D02*
X180878817Y-127568164D01*
X180878817Y-127568164D02*
X180855007Y-127615783D01*
X180855007Y-127615783D02*
X180807388Y-127663403D01*
X180807388Y-127663403D02*
X180735960Y-127687212D01*
X180735960Y-127687212D02*
X180616912Y-127687212D01*
X165377479Y-124917447D02*
X165615574Y-124917447D01*
X165329860Y-125060304D02*
X165496526Y-124560304D01*
X165496526Y-124560304D02*
X165663193Y-125060304D01*
X165829859Y-125060304D02*
X165829859Y-124560304D01*
X165829859Y-124560304D02*
X165948907Y-124560304D01*
X165948907Y-124560304D02*
X166020335Y-124584114D01*
X166020335Y-124584114D02*
X166067954Y-124631733D01*
X166067954Y-124631733D02*
X166091764Y-124679352D01*
X166091764Y-124679352D02*
X166115573Y-124774590D01*
X166115573Y-124774590D02*
X166115573Y-124846018D01*
X166115573Y-124846018D02*
X166091764Y-124941256D01*
X166091764Y-124941256D02*
X166067954Y-124988875D01*
X166067954Y-124988875D02*
X166020335Y-125036495D01*
X166020335Y-125036495D02*
X165948907Y-125060304D01*
X165948907Y-125060304D02*
X165829859Y-125060304D01*
X166401288Y-124774590D02*
X166353669Y-124750780D01*
X166353669Y-124750780D02*
X166329859Y-124726971D01*
X166329859Y-124726971D02*
X166306050Y-124679352D01*
X166306050Y-124679352D02*
X166306050Y-124655542D01*
X166306050Y-124655542D02*
X166329859Y-124607923D01*
X166329859Y-124607923D02*
X166353669Y-124584114D01*
X166353669Y-124584114D02*
X166401288Y-124560304D01*
X166401288Y-124560304D02*
X166496526Y-124560304D01*
X166496526Y-124560304D02*
X166544145Y-124584114D01*
X166544145Y-124584114D02*
X166567954Y-124607923D01*
X166567954Y-124607923D02*
X166591764Y-124655542D01*
X166591764Y-124655542D02*
X166591764Y-124679352D01*
X166591764Y-124679352D02*
X166567954Y-124726971D01*
X166567954Y-124726971D02*
X166544145Y-124750780D01*
X166544145Y-124750780D02*
X166496526Y-124774590D01*
X166496526Y-124774590D02*
X166401288Y-124774590D01*
X166401288Y-124774590D02*
X166353669Y-124798399D01*
X166353669Y-124798399D02*
X166329859Y-124822209D01*
X166329859Y-124822209D02*
X166306050Y-124869828D01*
X166306050Y-124869828D02*
X166306050Y-124965066D01*
X166306050Y-124965066D02*
X166329859Y-125012685D01*
X166329859Y-125012685D02*
X166353669Y-125036495D01*
X166353669Y-125036495D02*
X166401288Y-125060304D01*
X166401288Y-125060304D02*
X166496526Y-125060304D01*
X166496526Y-125060304D02*
X166544145Y-125036495D01*
X166544145Y-125036495D02*
X166567954Y-125012685D01*
X166567954Y-125012685D02*
X166591764Y-124965066D01*
X166591764Y-124965066D02*
X166591764Y-124869828D01*
X166591764Y-124869828D02*
X166567954Y-124822209D01*
X166567954Y-124822209D02*
X166544145Y-124798399D01*
X166544145Y-124798399D02*
X166496526Y-124774590D01*
X166901287Y-124560304D02*
X166948906Y-124560304D01*
X166948906Y-124560304D02*
X166996525Y-124584114D01*
X166996525Y-124584114D02*
X167020335Y-124607923D01*
X167020335Y-124607923D02*
X167044144Y-124655542D01*
X167044144Y-124655542D02*
X167067954Y-124750780D01*
X167067954Y-124750780D02*
X167067954Y-124869828D01*
X167067954Y-124869828D02*
X167044144Y-124965066D01*
X167044144Y-124965066D02*
X167020335Y-125012685D01*
X167020335Y-125012685D02*
X166996525Y-125036495D01*
X166996525Y-125036495D02*
X166948906Y-125060304D01*
X166948906Y-125060304D02*
X166901287Y-125060304D01*
X166901287Y-125060304D02*
X166853668Y-125036495D01*
X166853668Y-125036495D02*
X166829859Y-125012685D01*
X166829859Y-125012685D02*
X166806049Y-124965066D01*
X166806049Y-124965066D02*
X166782240Y-124869828D01*
X166782240Y-124869828D02*
X166782240Y-124750780D01*
X166782240Y-124750780D02*
X166806049Y-124655542D01*
X166806049Y-124655542D02*
X166829859Y-124607923D01*
X166829859Y-124607923D02*
X166853668Y-124584114D01*
X166853668Y-124584114D02*
X166901287Y-124560304D01*
X167496525Y-124726971D02*
X167496525Y-125060304D01*
X167377477Y-124536495D02*
X167258430Y-124893637D01*
X167258430Y-124893637D02*
X167567953Y-124893637D01*
X168020334Y-125060304D02*
X167734620Y-125060304D01*
X167877477Y-125060304D02*
X167877477Y-124560304D01*
X167877477Y-124560304D02*
X167829858Y-124631733D01*
X167829858Y-124631733D02*
X167782239Y-124679352D01*
X167782239Y-124679352D02*
X167734620Y-124703161D01*
X123047861Y-112403986D02*
X123524051Y-112403986D01*
X122952623Y-112689701D02*
X123285956Y-111689701D01*
X123285956Y-111689701D02*
X123619289Y-112689701D01*
X123952623Y-112308748D02*
X124714528Y-112308748D01*
X149439719Y-143144135D02*
X150106385Y-143144135D01*
X150106385Y-143144135D02*
X149677814Y-144144135D01*
X150915909Y-143144135D02*
X150725433Y-143144135D01*
X150725433Y-143144135D02*
X150630195Y-143191754D01*
X150630195Y-143191754D02*
X150582576Y-143239373D01*
X150582576Y-143239373D02*
X150487338Y-143382230D01*
X150487338Y-143382230D02*
X150439719Y-143572706D01*
X150439719Y-143572706D02*
X150439719Y-143953658D01*
X150439719Y-143953658D02*
X150487338Y-144048896D01*
X150487338Y-144048896D02*
X150534957Y-144096516D01*
X150534957Y-144096516D02*
X150630195Y-144144135D01*
X150630195Y-144144135D02*
X150820671Y-144144135D01*
X150820671Y-144144135D02*
X150915909Y-144096516D01*
X150915909Y-144096516D02*
X150963528Y-144048896D01*
X150963528Y-144048896D02*
X151011147Y-143953658D01*
X151011147Y-143953658D02*
X151011147Y-143715563D01*
X151011147Y-143715563D02*
X150963528Y-143620325D01*
X150963528Y-143620325D02*
X150915909Y-143572706D01*
X150915909Y-143572706D02*
X150820671Y-143525087D01*
X150820671Y-143525087D02*
X150630195Y-143525087D01*
X150630195Y-143525087D02*
X150534957Y-143572706D01*
X150534957Y-143572706D02*
X150487338Y-143620325D01*
X150487338Y-143620325D02*
X150439719Y-143715563D01*
X151487338Y-144096516D02*
X151487338Y-144144135D01*
X151487338Y-144144135D02*
X151439719Y-144239373D01*
X151439719Y-144239373D02*
X151392100Y-144286992D01*
X152439718Y-144144135D02*
X151868290Y-144144135D01*
X152154004Y-144144135D02*
X152154004Y-143144135D01*
X152154004Y-143144135D02*
X152058766Y-143286992D01*
X152058766Y-143286992D02*
X151963528Y-143382230D01*
X151963528Y-143382230D02*
X151868290Y-143429849D01*
X152915909Y-144144135D02*
X153106385Y-144144135D01*
X153106385Y-144144135D02*
X153201623Y-144096516D01*
X153201623Y-144096516D02*
X153249242Y-144048896D01*
X153249242Y-144048896D02*
X153344480Y-143906039D01*
X153344480Y-143906039D02*
X153392099Y-143715563D01*
X153392099Y-143715563D02*
X153392099Y-143334611D01*
X153392099Y-143334611D02*
X153344480Y-143239373D01*
X153344480Y-143239373D02*
X153296861Y-143191754D01*
X153296861Y-143191754D02*
X153201623Y-143144135D01*
X153201623Y-143144135D02*
X153011147Y-143144135D01*
X153011147Y-143144135D02*
X152915909Y-143191754D01*
X152915909Y-143191754D02*
X152868290Y-143239373D01*
X152868290Y-143239373D02*
X152820671Y-143334611D01*
X152820671Y-143334611D02*
X152820671Y-143572706D01*
X152820671Y-143572706D02*
X152868290Y-143667944D01*
X152868290Y-143667944D02*
X152915909Y-143715563D01*
X152915909Y-143715563D02*
X153011147Y-143763182D01*
X153011147Y-143763182D02*
X153201623Y-143763182D01*
X153201623Y-143763182D02*
X153296861Y-143715563D01*
X153296861Y-143715563D02*
X153344480Y-143667944D01*
X153344480Y-143667944D02*
X153392099Y-143572706D01*
X154011147Y-143144135D02*
X154106385Y-143144135D01*
X154106385Y-143144135D02*
X154201623Y-143191754D01*
X154201623Y-143191754D02*
X154249242Y-143239373D01*
X154249242Y-143239373D02*
X154296861Y-143334611D01*
X154296861Y-143334611D02*
X154344480Y-143525087D01*
X154344480Y-143525087D02*
X154344480Y-143763182D01*
X154344480Y-143763182D02*
X154296861Y-143953658D01*
X154296861Y-143953658D02*
X154249242Y-144048896D01*
X154249242Y-144048896D02*
X154201623Y-144096516D01*
X154201623Y-144096516D02*
X154106385Y-144144135D01*
X154106385Y-144144135D02*
X154011147Y-144144135D01*
X154011147Y-144144135D02*
X153915909Y-144096516D01*
X153915909Y-144096516D02*
X153868290Y-144048896D01*
X153868290Y-144048896D02*
X153820671Y-143953658D01*
X153820671Y-143953658D02*
X153773052Y-143763182D01*
X153773052Y-143763182D02*
X153773052Y-143525087D01*
X153773052Y-143525087D02*
X153820671Y-143334611D01*
X153820671Y-143334611D02*
X153868290Y-143239373D01*
X153868290Y-143239373D02*
X153915909Y-143191754D01*
X153915909Y-143191754D02*
X154011147Y-143144135D01*
X155201623Y-143144135D02*
X155011147Y-143144135D01*
X155011147Y-143144135D02*
X154915909Y-143191754D01*
X154915909Y-143191754D02*
X154868290Y-143239373D01*
X154868290Y-143239373D02*
X154773052Y-143382230D01*
X154773052Y-143382230D02*
X154725433Y-143572706D01*
X154725433Y-143572706D02*
X154725433Y-143953658D01*
X154725433Y-143953658D02*
X154773052Y-144048896D01*
X154773052Y-144048896D02*
X154820671Y-144096516D01*
X154820671Y-144096516D02*
X154915909Y-144144135D01*
X154915909Y-144144135D02*
X155106385Y-144144135D01*
X155106385Y-144144135D02*
X155201623Y-144096516D01*
X155201623Y-144096516D02*
X155249242Y-144048896D01*
X155249242Y-144048896D02*
X155296861Y-143953658D01*
X155296861Y-143953658D02*
X155296861Y-143715563D01*
X155296861Y-143715563D02*
X155249242Y-143620325D01*
X155249242Y-143620325D02*
X155201623Y-143572706D01*
X155201623Y-143572706D02*
X155106385Y-143525087D01*
X155106385Y-143525087D02*
X154915909Y-143525087D01*
X154915909Y-143525087D02*
X154820671Y-143572706D01*
X154820671Y-143572706D02*
X154773052Y-143620325D01*
X154773052Y-143620325D02*
X154725433Y-143715563D01*
X190487400Y-133850000D02*
X190487400Y-145373136D01*
X114296800Y-145373136D02*
X114296800Y-133856716D01*
X190487400Y-144786716D02*
X114296800Y-144786716D01*
X190487400Y-144786716D02*
X189360896Y-145373137D01*
X190487400Y-144786716D02*
X189360896Y-144200295D01*
X114296800Y-144786716D02*
X115423304Y-144200295D01*
X114296800Y-144786716D02*
X115423304Y-145373137D01*
X209507552Y-113560887D02*
X210174219Y-113560887D01*
X209126600Y-113798982D02*
X209840885Y-114037077D01*
X209840885Y-114037077D02*
X209840885Y-113418030D01*
X209507552Y-112608506D02*
X210174219Y-112608506D01*
X209126600Y-112846601D02*
X209840885Y-113084696D01*
X209840885Y-113084696D02*
X209840885Y-112465649D01*
X210126600Y-112037077D02*
X210174219Y-112037077D01*
X210174219Y-112037077D02*
X210269457Y-112084696D01*
X210269457Y-112084696D02*
X210317076Y-112132315D01*
X209507552Y-111179935D02*
X210174219Y-111179935D01*
X209126600Y-111418030D02*
X209840885Y-111656125D01*
X209840885Y-111656125D02*
X209840885Y-111037078D01*
X209507552Y-110227554D02*
X210174219Y-110227554D01*
X209126600Y-110465649D02*
X209840885Y-110703744D01*
X209840885Y-110703744D02*
X209840885Y-110084697D01*
X209602790Y-109560887D02*
X209555171Y-109656125D01*
X209555171Y-109656125D02*
X209507552Y-109703744D01*
X209507552Y-109703744D02*
X209412314Y-109751363D01*
X209412314Y-109751363D02*
X209364695Y-109751363D01*
X209364695Y-109751363D02*
X209269457Y-109703744D01*
X209269457Y-109703744D02*
X209221838Y-109656125D01*
X209221838Y-109656125D02*
X209174219Y-109560887D01*
X209174219Y-109560887D02*
X209174219Y-109370411D01*
X209174219Y-109370411D02*
X209221838Y-109275173D01*
X209221838Y-109275173D02*
X209269457Y-109227554D01*
X209269457Y-109227554D02*
X209364695Y-109179935D01*
X209364695Y-109179935D02*
X209412314Y-109179935D01*
X209412314Y-109179935D02*
X209507552Y-109227554D01*
X209507552Y-109227554D02*
X209555171Y-109275173D01*
X209555171Y-109275173D02*
X209602790Y-109370411D01*
X209602790Y-109370411D02*
X209602790Y-109560887D01*
X209602790Y-109560887D02*
X209650409Y-109656125D01*
X209650409Y-109656125D02*
X209698028Y-109703744D01*
X209698028Y-109703744D02*
X209793266Y-109751363D01*
X209793266Y-109751363D02*
X209983742Y-109751363D01*
X209983742Y-109751363D02*
X210078980Y-109703744D01*
X210078980Y-109703744D02*
X210126600Y-109656125D01*
X210126600Y-109656125D02*
X210174219Y-109560887D01*
X210174219Y-109560887D02*
X210174219Y-109370411D01*
X210174219Y-109370411D02*
X210126600Y-109275173D01*
X210126600Y-109275173D02*
X210078980Y-109227554D01*
X210078980Y-109227554D02*
X209983742Y-109179935D01*
X209983742Y-109179935D02*
X209793266Y-109179935D01*
X209793266Y-109179935D02*
X209698028Y-109227554D01*
X209698028Y-109227554D02*
X209650409Y-109275173D01*
X209650409Y-109275173D02*
X209602790Y-109370411D01*
X209602790Y-108608506D02*
X209555171Y-108703744D01*
X209555171Y-108703744D02*
X209507552Y-108751363D01*
X209507552Y-108751363D02*
X209412314Y-108798982D01*
X209412314Y-108798982D02*
X209364695Y-108798982D01*
X209364695Y-108798982D02*
X209269457Y-108751363D01*
X209269457Y-108751363D02*
X209221838Y-108703744D01*
X209221838Y-108703744D02*
X209174219Y-108608506D01*
X209174219Y-108608506D02*
X209174219Y-108418030D01*
X209174219Y-108418030D02*
X209221838Y-108322792D01*
X209221838Y-108322792D02*
X209269457Y-108275173D01*
X209269457Y-108275173D02*
X209364695Y-108227554D01*
X209364695Y-108227554D02*
X209412314Y-108227554D01*
X209412314Y-108227554D02*
X209507552Y-108275173D01*
X209507552Y-108275173D02*
X209555171Y-108322792D01*
X209555171Y-108322792D02*
X209602790Y-108418030D01*
X209602790Y-108418030D02*
X209602790Y-108608506D01*
X209602790Y-108608506D02*
X209650409Y-108703744D01*
X209650409Y-108703744D02*
X209698028Y-108751363D01*
X209698028Y-108751363D02*
X209793266Y-108798982D01*
X209793266Y-108798982D02*
X209983742Y-108798982D01*
X209983742Y-108798982D02*
X210078980Y-108751363D01*
X210078980Y-108751363D02*
X210126600Y-108703744D01*
X210126600Y-108703744D02*
X210174219Y-108608506D01*
X210174219Y-108608506D02*
X210174219Y-108418030D01*
X210174219Y-108418030D02*
X210126600Y-108322792D01*
X210126600Y-108322792D02*
X210078980Y-108275173D01*
X210078980Y-108275173D02*
X209983742Y-108227554D01*
X209983742Y-108227554D02*
X209793266Y-108227554D01*
X209793266Y-108227554D02*
X209698028Y-108275173D01*
X209698028Y-108275173D02*
X209650409Y-108322792D01*
X209650409Y-108322792D02*
X209602790Y-108418030D01*
X190987400Y-88907915D02*
X211403220Y-88907915D01*
X211403220Y-133356716D02*
X190996800Y-133356716D01*
X210816800Y-88907915D02*
X210816800Y-133356716D01*
X210816800Y-88907915D02*
X211403221Y-90034419D01*
X210816800Y-88907915D02*
X210230379Y-90034419D01*
X210816800Y-133356716D02*
X210230379Y-132230212D01*
X210816800Y-133356716D02*
X211403221Y-132230212D01*
D11*
X142649086Y-102936836D02*
X142315753Y-102460645D01*
X142077658Y-102936836D02*
X142077658Y-101936836D01*
X142077658Y-101936836D02*
X142458610Y-101936836D01*
X142458610Y-101936836D02*
X142553848Y-101984455D01*
X142553848Y-101984455D02*
X142601467Y-102032074D01*
X142601467Y-102032074D02*
X142649086Y-102127312D01*
X142649086Y-102127312D02*
X142649086Y-102270169D01*
X142649086Y-102270169D02*
X142601467Y-102365407D01*
X142601467Y-102365407D02*
X142553848Y-102413026D01*
X142553848Y-102413026D02*
X142458610Y-102460645D01*
X142458610Y-102460645D02*
X142077658Y-102460645D01*
X143506229Y-101936836D02*
X143315753Y-101936836D01*
X143315753Y-101936836D02*
X143220515Y-101984455D01*
X143220515Y-101984455D02*
X143172896Y-102032074D01*
X143172896Y-102032074D02*
X143077658Y-102174931D01*
X143077658Y-102174931D02*
X143030039Y-102365407D01*
X143030039Y-102365407D02*
X143030039Y-102746359D01*
X143030039Y-102746359D02*
X143077658Y-102841597D01*
X143077658Y-102841597D02*
X143125277Y-102889217D01*
X143125277Y-102889217D02*
X143220515Y-102936836D01*
X143220515Y-102936836D02*
X143410991Y-102936836D01*
X143410991Y-102936836D02*
X143506229Y-102889217D01*
X143506229Y-102889217D02*
X143553848Y-102841597D01*
X143553848Y-102841597D02*
X143601467Y-102746359D01*
X143601467Y-102746359D02*
X143601467Y-102508264D01*
X143601467Y-102508264D02*
X143553848Y-102413026D01*
X143553848Y-102413026D02*
X143506229Y-102365407D01*
X143506229Y-102365407D02*
X143410991Y-102317788D01*
X143410991Y-102317788D02*
X143220515Y-102317788D01*
X143220515Y-102317788D02*
X143125277Y-102365407D01*
X143125277Y-102365407D02*
X143077658Y-102413026D01*
X143077658Y-102413026D02*
X143030039Y-102508264D01*
X119272066Y-103736135D02*
X119272066Y-104450420D01*
X119272066Y-104450420D02*
X119224447Y-104593277D01*
X119224447Y-104593277D02*
X119129209Y-104688516D01*
X119129209Y-104688516D02*
X118986352Y-104736135D01*
X118986352Y-104736135D02*
X118891114Y-104736135D01*
X119700638Y-103831373D02*
X119748257Y-103783754D01*
X119748257Y-103783754D02*
X119843495Y-103736135D01*
X119843495Y-103736135D02*
X120081590Y-103736135D01*
X120081590Y-103736135D02*
X120176828Y-103783754D01*
X120176828Y-103783754D02*
X120224447Y-103831373D01*
X120224447Y-103831373D02*
X120272066Y-103926611D01*
X120272066Y-103926611D02*
X120272066Y-104021849D01*
X120272066Y-104021849D02*
X120224447Y-104164706D01*
X120224447Y-104164706D02*
X119653019Y-104736135D01*
X119653019Y-104736135D02*
X120272066Y-104736135D01*
X167470133Y-109521535D02*
X167136800Y-109045344D01*
X166898705Y-109521535D02*
X166898705Y-108521535D01*
X166898705Y-108521535D02*
X167279657Y-108521535D01*
X167279657Y-108521535D02*
X167374895Y-108569154D01*
X167374895Y-108569154D02*
X167422514Y-108616773D01*
X167422514Y-108616773D02*
X167470133Y-108712011D01*
X167470133Y-108712011D02*
X167470133Y-108854868D01*
X167470133Y-108854868D02*
X167422514Y-108950106D01*
X167422514Y-108950106D02*
X167374895Y-108997725D01*
X167374895Y-108997725D02*
X167279657Y-109045344D01*
X167279657Y-109045344D02*
X166898705Y-109045344D01*
X168374895Y-108521535D02*
X167898705Y-108521535D01*
X167898705Y-108521535D02*
X167851086Y-108997725D01*
X167851086Y-108997725D02*
X167898705Y-108950106D01*
X167898705Y-108950106D02*
X167993943Y-108902487D01*
X167993943Y-108902487D02*
X168232038Y-108902487D01*
X168232038Y-108902487D02*
X168327276Y-108950106D01*
X168327276Y-108950106D02*
X168374895Y-108997725D01*
X168374895Y-108997725D02*
X168422514Y-109092963D01*
X168422514Y-109092963D02*
X168422514Y-109331058D01*
X168422514Y-109331058D02*
X168374895Y-109426296D01*
X168374895Y-109426296D02*
X168327276Y-109473916D01*
X168327276Y-109473916D02*
X168232038Y-109521535D01*
X168232038Y-109521535D02*
X167993943Y-109521535D01*
X167993943Y-109521535D02*
X167898705Y-109473916D01*
X167898705Y-109473916D02*
X167851086Y-109426296D01*
X146226156Y-119681534D02*
X145892823Y-119205343D01*
X145654728Y-119681534D02*
X145654728Y-118681534D01*
X145654728Y-118681534D02*
X146035680Y-118681534D01*
X146035680Y-118681534D02*
X146130918Y-118729153D01*
X146130918Y-118729153D02*
X146178537Y-118776772D01*
X146178537Y-118776772D02*
X146226156Y-118872010D01*
X146226156Y-118872010D02*
X146226156Y-119014867D01*
X146226156Y-119014867D02*
X146178537Y-119110105D01*
X146178537Y-119110105D02*
X146130918Y-119157724D01*
X146130918Y-119157724D02*
X146035680Y-119205343D01*
X146035680Y-119205343D02*
X145654728Y-119205343D01*
X146559490Y-118681534D02*
X147178537Y-118681534D01*
X147178537Y-118681534D02*
X146845204Y-119062486D01*
X146845204Y-119062486D02*
X146988061Y-119062486D01*
X146988061Y-119062486D02*
X147083299Y-119110105D01*
X147083299Y-119110105D02*
X147130918Y-119157724D01*
X147130918Y-119157724D02*
X147178537Y-119252962D01*
X147178537Y-119252962D02*
X147178537Y-119491057D01*
X147178537Y-119491057D02*
X147130918Y-119586295D01*
X147130918Y-119586295D02*
X147083299Y-119633915D01*
X147083299Y-119633915D02*
X146988061Y-119681534D01*
X146988061Y-119681534D02*
X146702347Y-119681534D01*
X146702347Y-119681534D02*
X146607109Y-119633915D01*
X146607109Y-119633915D02*
X146559490Y-119586295D01*
X183960133Y-101906296D02*
X183912514Y-101953916D01*
X183912514Y-101953916D02*
X183769657Y-102001535D01*
X183769657Y-102001535D02*
X183674419Y-102001535D01*
X183674419Y-102001535D02*
X183531562Y-101953916D01*
X183531562Y-101953916D02*
X183436324Y-101858677D01*
X183436324Y-101858677D02*
X183388705Y-101763439D01*
X183388705Y-101763439D02*
X183341086Y-101572963D01*
X183341086Y-101572963D02*
X183341086Y-101430106D01*
X183341086Y-101430106D02*
X183388705Y-101239630D01*
X183388705Y-101239630D02*
X183436324Y-101144392D01*
X183436324Y-101144392D02*
X183531562Y-101049154D01*
X183531562Y-101049154D02*
X183674419Y-101001535D01*
X183674419Y-101001535D02*
X183769657Y-101001535D01*
X183769657Y-101001535D02*
X183912514Y-101049154D01*
X183912514Y-101049154D02*
X183960133Y-101096773D01*
X184912514Y-102001535D02*
X184341086Y-102001535D01*
X184626800Y-102001535D02*
X184626800Y-101001535D01*
X184626800Y-101001535D02*
X184531562Y-101144392D01*
X184531562Y-101144392D02*
X184436324Y-101239630D01*
X184436324Y-101239630D02*
X184341086Y-101287249D01*
X129068705Y-102491535D02*
X129640133Y-102491535D01*
X129354419Y-103491535D02*
X129354419Y-102491535D01*
X129973467Y-103491535D02*
X129973467Y-102491535D01*
X129973467Y-102491535D02*
X130354419Y-102491535D01*
X130354419Y-102491535D02*
X130449657Y-102539154D01*
X130449657Y-102539154D02*
X130497276Y-102586773D01*
X130497276Y-102586773D02*
X130544895Y-102682011D01*
X130544895Y-102682011D02*
X130544895Y-102824868D01*
X130544895Y-102824868D02*
X130497276Y-102920106D01*
X130497276Y-102920106D02*
X130449657Y-102967725D01*
X130449657Y-102967725D02*
X130354419Y-103015344D01*
X130354419Y-103015344D02*
X129973467Y-103015344D01*
X131497276Y-103491535D02*
X130925848Y-103491535D01*
X131211562Y-103491535D02*
X131211562Y-102491535D01*
X131211562Y-102491535D02*
X131116324Y-102634392D01*
X131116324Y-102634392D02*
X131021086Y-102729630D01*
X131021086Y-102729630D02*
X130925848Y-102777249D01*
X132116324Y-102491535D02*
X132211562Y-102491535D01*
X132211562Y-102491535D02*
X132306800Y-102539154D01*
X132306800Y-102539154D02*
X132354419Y-102586773D01*
X132354419Y-102586773D02*
X132402038Y-102682011D01*
X132402038Y-102682011D02*
X132449657Y-102872487D01*
X132449657Y-102872487D02*
X132449657Y-103110582D01*
X132449657Y-103110582D02*
X132402038Y-103301058D01*
X132402038Y-103301058D02*
X132354419Y-103396296D01*
X132354419Y-103396296D02*
X132306800Y-103443916D01*
X132306800Y-103443916D02*
X132211562Y-103491535D01*
X132211562Y-103491535D02*
X132116324Y-103491535D01*
X132116324Y-103491535D02*
X132021086Y-103443916D01*
X132021086Y-103443916D02*
X131973467Y-103396296D01*
X131973467Y-103396296D02*
X131925848Y-103301058D01*
X131925848Y-103301058D02*
X131878229Y-103110582D01*
X131878229Y-103110582D02*
X131878229Y-102872487D01*
X131878229Y-102872487D02*
X131925848Y-102682011D01*
X131925848Y-102682011D02*
X131973467Y-102586773D01*
X131973467Y-102586773D02*
X132021086Y-102539154D01*
X132021086Y-102539154D02*
X132116324Y-102491535D01*
X185082206Y-104953025D02*
X185082206Y-105667310D01*
X185082206Y-105667310D02*
X185034587Y-105810167D01*
X185034587Y-105810167D02*
X184939349Y-105905406D01*
X184939349Y-105905406D02*
X184796492Y-105953025D01*
X184796492Y-105953025D02*
X184701254Y-105953025D01*
X186082206Y-105953025D02*
X185510778Y-105953025D01*
X185796492Y-105953025D02*
X185796492Y-104953025D01*
X185796492Y-104953025D02*
X185701254Y-105095882D01*
X185701254Y-105095882D02*
X185606016Y-105191120D01*
X185606016Y-105191120D02*
X185510778Y-105238739D01*
X177804895Y-101221535D02*
X178376323Y-101221535D01*
X178090609Y-102221535D02*
X178090609Y-101221535D01*
X178709657Y-102221535D02*
X178709657Y-101221535D01*
X178709657Y-101221535D02*
X179090609Y-101221535D01*
X179090609Y-101221535D02*
X179185847Y-101269154D01*
X179185847Y-101269154D02*
X179233466Y-101316773D01*
X179233466Y-101316773D02*
X179281085Y-101412011D01*
X179281085Y-101412011D02*
X179281085Y-101554868D01*
X179281085Y-101554868D02*
X179233466Y-101650106D01*
X179233466Y-101650106D02*
X179185847Y-101697725D01*
X179185847Y-101697725D02*
X179090609Y-101745344D01*
X179090609Y-101745344D02*
X178709657Y-101745344D01*
X179757276Y-102221535D02*
X179947752Y-102221535D01*
X179947752Y-102221535D02*
X180042990Y-102173916D01*
X180042990Y-102173916D02*
X180090609Y-102126296D01*
X180090609Y-102126296D02*
X180185847Y-101983439D01*
X180185847Y-101983439D02*
X180233466Y-101792963D01*
X180233466Y-101792963D02*
X180233466Y-101412011D01*
X180233466Y-101412011D02*
X180185847Y-101316773D01*
X180185847Y-101316773D02*
X180138228Y-101269154D01*
X180138228Y-101269154D02*
X180042990Y-101221535D01*
X180042990Y-101221535D02*
X179852514Y-101221535D01*
X179852514Y-101221535D02*
X179757276Y-101269154D01*
X179757276Y-101269154D02*
X179709657Y-101316773D01*
X179709657Y-101316773D02*
X179662038Y-101412011D01*
X179662038Y-101412011D02*
X179662038Y-101650106D01*
X179662038Y-101650106D02*
X179709657Y-101745344D01*
X179709657Y-101745344D02*
X179757276Y-101792963D01*
X179757276Y-101792963D02*
X179852514Y-101840582D01*
X179852514Y-101840582D02*
X180042990Y-101840582D01*
X180042990Y-101840582D02*
X180138228Y-101792963D01*
X180138228Y-101792963D02*
X180185847Y-101745344D01*
X180185847Y-101745344D02*
X180233466Y-101650106D01*
X181614895Y-125351535D02*
X182186323Y-125351535D01*
X181900609Y-126351535D02*
X181900609Y-125351535D01*
X182519657Y-126351535D02*
X182519657Y-125351535D01*
X182519657Y-125351535D02*
X182900609Y-125351535D01*
X182900609Y-125351535D02*
X182995847Y-125399154D01*
X182995847Y-125399154D02*
X183043466Y-125446773D01*
X183043466Y-125446773D02*
X183091085Y-125542011D01*
X183091085Y-125542011D02*
X183091085Y-125684868D01*
X183091085Y-125684868D02*
X183043466Y-125780106D01*
X183043466Y-125780106D02*
X182995847Y-125827725D01*
X182995847Y-125827725D02*
X182900609Y-125875344D01*
X182900609Y-125875344D02*
X182519657Y-125875344D01*
X183948228Y-125684868D02*
X183948228Y-126351535D01*
X183710133Y-125303916D02*
X183472038Y-126018201D01*
X183472038Y-126018201D02*
X184091085Y-126018201D01*
X167286075Y-101364278D02*
X167857503Y-101364278D01*
X167571789Y-102364278D02*
X167571789Y-101364278D01*
X168190837Y-102364278D02*
X168190837Y-101364278D01*
X168190837Y-101364278D02*
X168571789Y-101364278D01*
X168571789Y-101364278D02*
X168667027Y-101411897D01*
X168667027Y-101411897D02*
X168714646Y-101459516D01*
X168714646Y-101459516D02*
X168762265Y-101554754D01*
X168762265Y-101554754D02*
X168762265Y-101697611D01*
X168762265Y-101697611D02*
X168714646Y-101792849D01*
X168714646Y-101792849D02*
X168667027Y-101840468D01*
X168667027Y-101840468D02*
X168571789Y-101888087D01*
X168571789Y-101888087D02*
X168190837Y-101888087D01*
X169667027Y-101364278D02*
X169190837Y-101364278D01*
X169190837Y-101364278D02*
X169143218Y-101840468D01*
X169143218Y-101840468D02*
X169190837Y-101792849D01*
X169190837Y-101792849D02*
X169286075Y-101745230D01*
X169286075Y-101745230D02*
X169524170Y-101745230D01*
X169524170Y-101745230D02*
X169619408Y-101792849D01*
X169619408Y-101792849D02*
X169667027Y-101840468D01*
X169667027Y-101840468D02*
X169714646Y-101935706D01*
X169714646Y-101935706D02*
X169714646Y-102173801D01*
X169714646Y-102173801D02*
X169667027Y-102269039D01*
X169667027Y-102269039D02*
X169619408Y-102316659D01*
X169619408Y-102316659D02*
X169524170Y-102364278D01*
X169524170Y-102364278D02*
X169286075Y-102364278D01*
X169286075Y-102364278D02*
X169190837Y-102316659D01*
X169190837Y-102316659D02*
X169143218Y-102269039D01*
X165356200Y-92720711D02*
X165356200Y-93530234D01*
X165356200Y-93530234D02*
X165403819Y-93625472D01*
X165403819Y-93625472D02*
X165451438Y-93673092D01*
X165451438Y-93673092D02*
X165546676Y-93720711D01*
X165546676Y-93720711D02*
X165737152Y-93720711D01*
X165737152Y-93720711D02*
X165832390Y-93673092D01*
X165832390Y-93673092D02*
X165880009Y-93625472D01*
X165880009Y-93625472D02*
X165927628Y-93530234D01*
X165927628Y-93530234D02*
X165927628Y-92720711D01*
X166356200Y-92815949D02*
X166403819Y-92768330D01*
X166403819Y-92768330D02*
X166499057Y-92720711D01*
X166499057Y-92720711D02*
X166737152Y-92720711D01*
X166737152Y-92720711D02*
X166832390Y-92768330D01*
X166832390Y-92768330D02*
X166880009Y-92815949D01*
X166880009Y-92815949D02*
X166927628Y-92911187D01*
X166927628Y-92911187D02*
X166927628Y-93006425D01*
X166927628Y-93006425D02*
X166880009Y-93149282D01*
X166880009Y-93149282D02*
X166308581Y-93720711D01*
X166308581Y-93720711D02*
X166927628Y-93720711D01*
X129068705Y-110111535D02*
X129640133Y-110111535D01*
X129354419Y-111111535D02*
X129354419Y-110111535D01*
X129973467Y-111111535D02*
X129973467Y-110111535D01*
X129973467Y-110111535D02*
X130354419Y-110111535D01*
X130354419Y-110111535D02*
X130449657Y-110159154D01*
X130449657Y-110159154D02*
X130497276Y-110206773D01*
X130497276Y-110206773D02*
X130544895Y-110302011D01*
X130544895Y-110302011D02*
X130544895Y-110444868D01*
X130544895Y-110444868D02*
X130497276Y-110540106D01*
X130497276Y-110540106D02*
X130449657Y-110587725D01*
X130449657Y-110587725D02*
X130354419Y-110635344D01*
X130354419Y-110635344D02*
X129973467Y-110635344D01*
X131497276Y-111111535D02*
X130925848Y-111111535D01*
X131211562Y-111111535D02*
X131211562Y-110111535D01*
X131211562Y-110111535D02*
X131116324Y-110254392D01*
X131116324Y-110254392D02*
X131021086Y-110349630D01*
X131021086Y-110349630D02*
X130925848Y-110397249D01*
X132449657Y-111111535D02*
X131878229Y-111111535D01*
X132163943Y-111111535D02*
X132163943Y-110111535D01*
X132163943Y-110111535D02*
X132068705Y-110254392D01*
X132068705Y-110254392D02*
X131973467Y-110349630D01*
X131973467Y-110349630D02*
X131878229Y-110397249D01*
X165593143Y-116680039D02*
X165593143Y-117489562D01*
X165593143Y-117489562D02*
X165640762Y-117584800D01*
X165640762Y-117584800D02*
X165688381Y-117632420D01*
X165688381Y-117632420D02*
X165783619Y-117680039D01*
X165783619Y-117680039D02*
X165974095Y-117680039D01*
X165974095Y-117680039D02*
X166069333Y-117632420D01*
X166069333Y-117632420D02*
X166116952Y-117584800D01*
X166116952Y-117584800D02*
X166164571Y-117489562D01*
X166164571Y-117489562D02*
X166164571Y-116680039D01*
X166545524Y-116680039D02*
X167164571Y-116680039D01*
X167164571Y-116680039D02*
X166831238Y-117060991D01*
X166831238Y-117060991D02*
X166974095Y-117060991D01*
X166974095Y-117060991D02*
X167069333Y-117108610D01*
X167069333Y-117108610D02*
X167116952Y-117156229D01*
X167116952Y-117156229D02*
X167164571Y-117251467D01*
X167164571Y-117251467D02*
X167164571Y-117489562D01*
X167164571Y-117489562D02*
X167116952Y-117584800D01*
X167116952Y-117584800D02*
X167069333Y-117632420D01*
X167069333Y-117632420D02*
X166974095Y-117680039D01*
X166974095Y-117680039D02*
X166688381Y-117680039D01*
X166688381Y-117680039D02*
X166593143Y-117632420D01*
X166593143Y-117632420D02*
X166545524Y-117584800D01*
X157484895Y-107571535D02*
X158056323Y-107571535D01*
X157770609Y-108571535D02*
X157770609Y-107571535D01*
X158389657Y-108571535D02*
X158389657Y-107571535D01*
X158389657Y-107571535D02*
X158770609Y-107571535D01*
X158770609Y-107571535D02*
X158865847Y-107619154D01*
X158865847Y-107619154D02*
X158913466Y-107666773D01*
X158913466Y-107666773D02*
X158961085Y-107762011D01*
X158961085Y-107762011D02*
X158961085Y-107904868D01*
X158961085Y-107904868D02*
X158913466Y-108000106D01*
X158913466Y-108000106D02*
X158865847Y-108047725D01*
X158865847Y-108047725D02*
X158770609Y-108095344D01*
X158770609Y-108095344D02*
X158389657Y-108095344D01*
X159294419Y-107571535D02*
X159961085Y-107571535D01*
X159961085Y-107571535D02*
X159532514Y-108571535D01*
X147645647Y-93933199D02*
X148217075Y-93933199D01*
X147931361Y-94933199D02*
X147931361Y-93933199D01*
X148550409Y-94933199D02*
X148550409Y-93933199D01*
X148550409Y-93933199D02*
X148931361Y-93933199D01*
X148931361Y-93933199D02*
X149026599Y-93980818D01*
X149026599Y-93980818D02*
X149074218Y-94028437D01*
X149074218Y-94028437D02*
X149121837Y-94123675D01*
X149121837Y-94123675D02*
X149121837Y-94266532D01*
X149121837Y-94266532D02*
X149074218Y-94361770D01*
X149074218Y-94361770D02*
X149026599Y-94409389D01*
X149026599Y-94409389D02*
X148931361Y-94457008D01*
X148931361Y-94457008D02*
X148550409Y-94457008D01*
X149693266Y-94361770D02*
X149598028Y-94314151D01*
X149598028Y-94314151D02*
X149550409Y-94266532D01*
X149550409Y-94266532D02*
X149502790Y-94171294D01*
X149502790Y-94171294D02*
X149502790Y-94123675D01*
X149502790Y-94123675D02*
X149550409Y-94028437D01*
X149550409Y-94028437D02*
X149598028Y-93980818D01*
X149598028Y-93980818D02*
X149693266Y-93933199D01*
X149693266Y-93933199D02*
X149883742Y-93933199D01*
X149883742Y-93933199D02*
X149978980Y-93980818D01*
X149978980Y-93980818D02*
X150026599Y-94028437D01*
X150026599Y-94028437D02*
X150074218Y-94123675D01*
X150074218Y-94123675D02*
X150074218Y-94171294D01*
X150074218Y-94171294D02*
X150026599Y-94266532D01*
X150026599Y-94266532D02*
X149978980Y-94314151D01*
X149978980Y-94314151D02*
X149883742Y-94361770D01*
X149883742Y-94361770D02*
X149693266Y-94361770D01*
X149693266Y-94361770D02*
X149598028Y-94409389D01*
X149598028Y-94409389D02*
X149550409Y-94457008D01*
X149550409Y-94457008D02*
X149502790Y-94552246D01*
X149502790Y-94552246D02*
X149502790Y-94742722D01*
X149502790Y-94742722D02*
X149550409Y-94837960D01*
X149550409Y-94837960D02*
X149598028Y-94885580D01*
X149598028Y-94885580D02*
X149693266Y-94933199D01*
X149693266Y-94933199D02*
X149883742Y-94933199D01*
X149883742Y-94933199D02*
X149978980Y-94885580D01*
X149978980Y-94885580D02*
X150026599Y-94837960D01*
X150026599Y-94837960D02*
X150074218Y-94742722D01*
X150074218Y-94742722D02*
X150074218Y-94552246D01*
X150074218Y-94552246D02*
X150026599Y-94457008D01*
X150026599Y-94457008D02*
X149978980Y-94409389D01*
X149978980Y-94409389D02*
X149883742Y-94361770D01*
X138434895Y-117731535D02*
X139006323Y-117731535D01*
X138720609Y-118731535D02*
X138720609Y-117731535D01*
X139339657Y-118731535D02*
X139339657Y-117731535D01*
X139339657Y-117731535D02*
X139720609Y-117731535D01*
X139720609Y-117731535D02*
X139815847Y-117779154D01*
X139815847Y-117779154D02*
X139863466Y-117826773D01*
X139863466Y-117826773D02*
X139911085Y-117922011D01*
X139911085Y-117922011D02*
X139911085Y-118064868D01*
X139911085Y-118064868D02*
X139863466Y-118160106D01*
X139863466Y-118160106D02*
X139815847Y-118207725D01*
X139815847Y-118207725D02*
X139720609Y-118255344D01*
X139720609Y-118255344D02*
X139339657Y-118255344D01*
X140768228Y-117731535D02*
X140577752Y-117731535D01*
X140577752Y-117731535D02*
X140482514Y-117779154D01*
X140482514Y-117779154D02*
X140434895Y-117826773D01*
X140434895Y-117826773D02*
X140339657Y-117969630D01*
X140339657Y-117969630D02*
X140292038Y-118160106D01*
X140292038Y-118160106D02*
X140292038Y-118541058D01*
X140292038Y-118541058D02*
X140339657Y-118636296D01*
X140339657Y-118636296D02*
X140387276Y-118683916D01*
X140387276Y-118683916D02*
X140482514Y-118731535D01*
X140482514Y-118731535D02*
X140672990Y-118731535D01*
X140672990Y-118731535D02*
X140768228Y-118683916D01*
X140768228Y-118683916D02*
X140815847Y-118636296D01*
X140815847Y-118636296D02*
X140863466Y-118541058D01*
X140863466Y-118541058D02*
X140863466Y-118302963D01*
X140863466Y-118302963D02*
X140815847Y-118207725D01*
X140815847Y-118207725D02*
X140768228Y-118160106D01*
X140768228Y-118160106D02*
X140672990Y-118112487D01*
X140672990Y-118112487D02*
X140482514Y-118112487D01*
X140482514Y-118112487D02*
X140387276Y-118160106D01*
X140387276Y-118160106D02*
X140339657Y-118207725D01*
X140339657Y-118207725D02*
X140292038Y-118302963D01*
X152794232Y-108489639D02*
X152746613Y-108537259D01*
X152746613Y-108537259D02*
X152603756Y-108584878D01*
X152603756Y-108584878D02*
X152508518Y-108584878D01*
X152508518Y-108584878D02*
X152365661Y-108537259D01*
X152365661Y-108537259D02*
X152270423Y-108442020D01*
X152270423Y-108442020D02*
X152222804Y-108346782D01*
X152222804Y-108346782D02*
X152175185Y-108156306D01*
X152175185Y-108156306D02*
X152175185Y-108013449D01*
X152175185Y-108013449D02*
X152222804Y-107822973D01*
X152222804Y-107822973D02*
X152270423Y-107727735D01*
X152270423Y-107727735D02*
X152365661Y-107632497D01*
X152365661Y-107632497D02*
X152508518Y-107584878D01*
X152508518Y-107584878D02*
X152603756Y-107584878D01*
X152603756Y-107584878D02*
X152746613Y-107632497D01*
X152746613Y-107632497D02*
X152794232Y-107680116D01*
X153651375Y-107918211D02*
X153651375Y-108584878D01*
X153413280Y-107537259D02*
X153175185Y-108251544D01*
X153175185Y-108251544D02*
X153794232Y-108251544D01*
X154556438Y-100135711D02*
X154223105Y-99659520D01*
X153985010Y-100135711D02*
X153985010Y-99135711D01*
X153985010Y-99135711D02*
X154365962Y-99135711D01*
X154365962Y-99135711D02*
X154461200Y-99183330D01*
X154461200Y-99183330D02*
X154508819Y-99230949D01*
X154508819Y-99230949D02*
X154556438Y-99326187D01*
X154556438Y-99326187D02*
X154556438Y-99469044D01*
X154556438Y-99469044D02*
X154508819Y-99564282D01*
X154508819Y-99564282D02*
X154461200Y-99611901D01*
X154461200Y-99611901D02*
X154365962Y-99659520D01*
X154365962Y-99659520D02*
X153985010Y-99659520D01*
X154937391Y-99230949D02*
X154985010Y-99183330D01*
X154985010Y-99183330D02*
X155080248Y-99135711D01*
X155080248Y-99135711D02*
X155318343Y-99135711D01*
X155318343Y-99135711D02*
X155413581Y-99183330D01*
X155413581Y-99183330D02*
X155461200Y-99230949D01*
X155461200Y-99230949D02*
X155508819Y-99326187D01*
X155508819Y-99326187D02*
X155508819Y-99421425D01*
X155508819Y-99421425D02*
X155461200Y-99564282D01*
X155461200Y-99564282D02*
X154889772Y-100135711D01*
X154889772Y-100135711D02*
X155508819Y-100135711D01*
X178794951Y-120972675D02*
X178842571Y-121020294D01*
X178842571Y-121020294D02*
X178890190Y-121163151D01*
X178890190Y-121163151D02*
X178890190Y-121258389D01*
X178890190Y-121258389D02*
X178842571Y-121401246D01*
X178842571Y-121401246D02*
X178747332Y-121496484D01*
X178747332Y-121496484D02*
X178652094Y-121544103D01*
X178652094Y-121544103D02*
X178461618Y-121591722D01*
X178461618Y-121591722D02*
X178318761Y-121591722D01*
X178318761Y-121591722D02*
X178128285Y-121544103D01*
X178128285Y-121544103D02*
X178033047Y-121496484D01*
X178033047Y-121496484D02*
X177937809Y-121401246D01*
X177937809Y-121401246D02*
X177890190Y-121258389D01*
X177890190Y-121258389D02*
X177890190Y-121163151D01*
X177890190Y-121163151D02*
X177937809Y-121020294D01*
X177937809Y-121020294D02*
X177985428Y-120972675D01*
X177890190Y-120639341D02*
X177890190Y-120020294D01*
X177890190Y-120020294D02*
X178271142Y-120353627D01*
X178271142Y-120353627D02*
X178271142Y-120210770D01*
X178271142Y-120210770D02*
X178318761Y-120115532D01*
X178318761Y-120115532D02*
X178366380Y-120067913D01*
X178366380Y-120067913D02*
X178461618Y-120020294D01*
X178461618Y-120020294D02*
X178699713Y-120020294D01*
X178699713Y-120020294D02*
X178794951Y-120067913D01*
X178794951Y-120067913D02*
X178842571Y-120115532D01*
X178842571Y-120115532D02*
X178890190Y-120210770D01*
X178890190Y-120210770D02*
X178890190Y-120496484D01*
X178890190Y-120496484D02*
X178842571Y-120591722D01*
X178842571Y-120591722D02*
X178794951Y-120639341D01*
X175774701Y-97068553D02*
X175822321Y-97116172D01*
X175822321Y-97116172D02*
X175869940Y-97259029D01*
X175869940Y-97259029D02*
X175869940Y-97354267D01*
X175869940Y-97354267D02*
X175822321Y-97497124D01*
X175822321Y-97497124D02*
X175727082Y-97592362D01*
X175727082Y-97592362D02*
X175631844Y-97639981D01*
X175631844Y-97639981D02*
X175441368Y-97687600D01*
X175441368Y-97687600D02*
X175298511Y-97687600D01*
X175298511Y-97687600D02*
X175108035Y-97639981D01*
X175108035Y-97639981D02*
X175012797Y-97592362D01*
X175012797Y-97592362D02*
X174917559Y-97497124D01*
X174917559Y-97497124D02*
X174869940Y-97354267D01*
X174869940Y-97354267D02*
X174869940Y-97259029D01*
X174869940Y-97259029D02*
X174917559Y-97116172D01*
X174917559Y-97116172D02*
X174965178Y-97068553D01*
X174965178Y-96687600D02*
X174917559Y-96639981D01*
X174917559Y-96639981D02*
X174869940Y-96544743D01*
X174869940Y-96544743D02*
X174869940Y-96306648D01*
X174869940Y-96306648D02*
X174917559Y-96211410D01*
X174917559Y-96211410D02*
X174965178Y-96163791D01*
X174965178Y-96163791D02*
X175060416Y-96116172D01*
X175060416Y-96116172D02*
X175155654Y-96116172D01*
X175155654Y-96116172D02*
X175298511Y-96163791D01*
X175298511Y-96163791D02*
X175869940Y-96735219D01*
X175869940Y-96735219D02*
X175869940Y-96116172D01*
X120654895Y-92331535D02*
X121226323Y-92331535D01*
X120940609Y-93331535D02*
X120940609Y-92331535D01*
X121559657Y-93331535D02*
X121559657Y-92331535D01*
X121559657Y-92331535D02*
X121940609Y-92331535D01*
X121940609Y-92331535D02*
X122035847Y-92379154D01*
X122035847Y-92379154D02*
X122083466Y-92426773D01*
X122083466Y-92426773D02*
X122131085Y-92522011D01*
X122131085Y-92522011D02*
X122131085Y-92664868D01*
X122131085Y-92664868D02*
X122083466Y-92760106D01*
X122083466Y-92760106D02*
X122035847Y-92807725D01*
X122035847Y-92807725D02*
X121940609Y-92855344D01*
X121940609Y-92855344D02*
X121559657Y-92855344D01*
X123083466Y-93331535D02*
X122512038Y-93331535D01*
X122797752Y-93331535D02*
X122797752Y-92331535D01*
X122797752Y-92331535D02*
X122702514Y-92474392D01*
X122702514Y-92474392D02*
X122607276Y-92569630D01*
X122607276Y-92569630D02*
X122512038Y-92617249D01*
X153500133Y-118731535D02*
X153166800Y-118255344D01*
X152928705Y-118731535D02*
X152928705Y-117731535D01*
X152928705Y-117731535D02*
X153309657Y-117731535D01*
X153309657Y-117731535D02*
X153404895Y-117779154D01*
X153404895Y-117779154D02*
X153452514Y-117826773D01*
X153452514Y-117826773D02*
X153500133Y-117922011D01*
X153500133Y-117922011D02*
X153500133Y-118064868D01*
X153500133Y-118064868D02*
X153452514Y-118160106D01*
X153452514Y-118160106D02*
X153404895Y-118207725D01*
X153404895Y-118207725D02*
X153309657Y-118255344D01*
X153309657Y-118255344D02*
X152928705Y-118255344D01*
X154357276Y-118064868D02*
X154357276Y-118731535D01*
X154119181Y-117683916D02*
X153881086Y-118398201D01*
X153881086Y-118398201D02*
X154500133Y-118398201D01*
X142018008Y-106473226D02*
X142018008Y-107282749D01*
X142018008Y-107282749D02*
X142065627Y-107377987D01*
X142065627Y-107377987D02*
X142113246Y-107425607D01*
X142113246Y-107425607D02*
X142208484Y-107473226D01*
X142208484Y-107473226D02*
X142398960Y-107473226D01*
X142398960Y-107473226D02*
X142494198Y-107425607D01*
X142494198Y-107425607D02*
X142541817Y-107377987D01*
X142541817Y-107377987D02*
X142589436Y-107282749D01*
X142589436Y-107282749D02*
X142589436Y-106473226D01*
X143589436Y-107473226D02*
X143018008Y-107473226D01*
X143303722Y-107473226D02*
X143303722Y-106473226D01*
X143303722Y-106473226D02*
X143208484Y-106616083D01*
X143208484Y-106616083D02*
X143113246Y-106711321D01*
X143113246Y-106711321D02*
X143018008Y-106758940D01*
X120633058Y-125347757D02*
X121204486Y-125347757D01*
X120918772Y-126347757D02*
X120918772Y-125347757D01*
X121537820Y-126347757D02*
X121537820Y-125347757D01*
X121537820Y-125347757D02*
X121918772Y-125347757D01*
X121918772Y-125347757D02*
X122014010Y-125395376D01*
X122014010Y-125395376D02*
X122061629Y-125442995D01*
X122061629Y-125442995D02*
X122109248Y-125538233D01*
X122109248Y-125538233D02*
X122109248Y-125681090D01*
X122109248Y-125681090D02*
X122061629Y-125776328D01*
X122061629Y-125776328D02*
X122014010Y-125823947D01*
X122014010Y-125823947D02*
X121918772Y-125871566D01*
X121918772Y-125871566D02*
X121537820Y-125871566D01*
X122490201Y-125442995D02*
X122537820Y-125395376D01*
X122537820Y-125395376D02*
X122633058Y-125347757D01*
X122633058Y-125347757D02*
X122871153Y-125347757D01*
X122871153Y-125347757D02*
X122966391Y-125395376D01*
X122966391Y-125395376D02*
X123014010Y-125442995D01*
X123014010Y-125442995D02*
X123061629Y-125538233D01*
X123061629Y-125538233D02*
X123061629Y-125633471D01*
X123061629Y-125633471D02*
X123014010Y-125776328D01*
X123014010Y-125776328D02*
X122442582Y-126347757D01*
X122442582Y-126347757D02*
X123061629Y-126347757D01*
X152404895Y-125351535D02*
X152976323Y-125351535D01*
X152690609Y-126351535D02*
X152690609Y-125351535D01*
X153309657Y-126351535D02*
X153309657Y-125351535D01*
X153309657Y-125351535D02*
X153690609Y-125351535D01*
X153690609Y-125351535D02*
X153785847Y-125399154D01*
X153785847Y-125399154D02*
X153833466Y-125446773D01*
X153833466Y-125446773D02*
X153881085Y-125542011D01*
X153881085Y-125542011D02*
X153881085Y-125684868D01*
X153881085Y-125684868D02*
X153833466Y-125780106D01*
X153833466Y-125780106D02*
X153785847Y-125827725D01*
X153785847Y-125827725D02*
X153690609Y-125875344D01*
X153690609Y-125875344D02*
X153309657Y-125875344D01*
X154214419Y-125351535D02*
X154833466Y-125351535D01*
X154833466Y-125351535D02*
X154500133Y-125732487D01*
X154500133Y-125732487D02*
X154642990Y-125732487D01*
X154642990Y-125732487D02*
X154738228Y-125780106D01*
X154738228Y-125780106D02*
X154785847Y-125827725D01*
X154785847Y-125827725D02*
X154833466Y-125922963D01*
X154833466Y-125922963D02*
X154833466Y-126161058D01*
X154833466Y-126161058D02*
X154785847Y-126256296D01*
X154785847Y-126256296D02*
X154738228Y-126303916D01*
X154738228Y-126303916D02*
X154642990Y-126351535D01*
X154642990Y-126351535D02*
X154357276Y-126351535D01*
X154357276Y-126351535D02*
X154262038Y-126303916D01*
X154262038Y-126303916D02*
X154214419Y-126256296D01*
X156607924Y-92387558D02*
X156131733Y-92720891D01*
X156607924Y-92958986D02*
X155607924Y-92958986D01*
X155607924Y-92958986D02*
X155607924Y-92578034D01*
X155607924Y-92578034D02*
X155655543Y-92482796D01*
X155655543Y-92482796D02*
X155703162Y-92435177D01*
X155703162Y-92435177D02*
X155798400Y-92387558D01*
X155798400Y-92387558D02*
X155941257Y-92387558D01*
X155941257Y-92387558D02*
X156036495Y-92435177D01*
X156036495Y-92435177D02*
X156084114Y-92482796D01*
X156084114Y-92482796D02*
X156131733Y-92578034D01*
X156131733Y-92578034D02*
X156131733Y-92958986D01*
X156607924Y-91435177D02*
X156607924Y-92006605D01*
X156607924Y-91720891D02*
X155607924Y-91720891D01*
X155607924Y-91720891D02*
X155750781Y-91816129D01*
X155750781Y-91816129D02*
X155846019Y-91911367D01*
X155846019Y-91911367D02*
X155893638Y-92006605D01*
D12*
%TO.C,R6*%
X142561029Y-103389517D02*
X143070477Y-103389517D01*
X142561029Y-104434517D02*
X143070477Y-104434517D01*
%TO.C,J2*%
X118225400Y-105281316D02*
X119605400Y-105281316D01*
X118225400Y-106661316D02*
X118225400Y-105281316D01*
X118225400Y-107931316D02*
X118225400Y-115661316D01*
X118225400Y-107931316D02*
X120985400Y-107931316D01*
X118225400Y-115661316D02*
X120985400Y-115661316D01*
X120985400Y-107931316D02*
X120985400Y-115661316D01*
%TO.C,R5*%
X167382076Y-109974216D02*
X167891524Y-109974216D01*
X167382076Y-111019216D02*
X167891524Y-111019216D01*
%TO.C,R3*%
X146138099Y-120134215D02*
X146647547Y-120134215D01*
X146138099Y-121179215D02*
X146647547Y-121179215D01*
%TO.C,C1*%
X181526800Y-98079716D02*
X181526800Y-97513716D01*
X181566800Y-98313716D02*
X181566800Y-97279716D01*
X181606800Y-98473716D02*
X181606800Y-97119716D01*
X181646800Y-98601716D02*
X181646800Y-96991716D01*
X181686800Y-98710716D02*
X181686800Y-96882716D01*
X181726800Y-98807716D02*
X181726800Y-96785716D01*
X181766800Y-98894716D02*
X181766800Y-96698716D01*
X181806800Y-98973716D02*
X181806800Y-96619716D01*
X181846800Y-96756716D02*
X181846800Y-96545716D01*
X181846800Y-99047716D02*
X181846800Y-98836716D01*
X181886800Y-96756716D02*
X181886800Y-96477716D01*
X181886800Y-99115716D02*
X181886800Y-98836716D01*
X181926800Y-96756716D02*
X181926800Y-96413716D01*
X181926800Y-99179716D02*
X181926800Y-98836716D01*
X181966800Y-96756716D02*
X181966800Y-96353716D01*
X181966800Y-99239716D02*
X181966800Y-98836716D01*
X182006800Y-96756716D02*
X182006800Y-96297716D01*
X182006800Y-99295716D02*
X182006800Y-98836716D01*
X182046800Y-96756716D02*
X182046800Y-96243716D01*
X182046800Y-99349716D02*
X182046800Y-98836716D01*
X182086800Y-96756716D02*
X182086800Y-96192716D01*
X182086800Y-99400716D02*
X182086800Y-98836716D01*
X182126800Y-96756716D02*
X182126800Y-96144716D01*
X182126800Y-99448716D02*
X182126800Y-98836716D01*
X182166800Y-96756716D02*
X182166800Y-96097716D01*
X182166800Y-99495716D02*
X182166800Y-98836716D01*
X182206800Y-96756716D02*
X182206800Y-96053716D01*
X182206800Y-99539716D02*
X182206800Y-98836716D01*
X182246800Y-96756716D02*
X182246800Y-96011716D01*
X182246800Y-99581716D02*
X182246800Y-98836716D01*
X182286800Y-96756716D02*
X182286800Y-95971716D01*
X182286800Y-99621716D02*
X182286800Y-98836716D01*
X182326800Y-96756716D02*
X182326800Y-95932716D01*
X182326800Y-99660716D02*
X182326800Y-98836716D01*
X182366800Y-96756716D02*
X182366800Y-95895716D01*
X182366800Y-99697716D02*
X182366800Y-98836716D01*
X182406800Y-96756716D02*
X182406800Y-95860716D01*
X182406800Y-99732716D02*
X182406800Y-98836716D01*
X182446800Y-96756716D02*
X182446800Y-95826716D01*
X182446800Y-99766716D02*
X182446800Y-98836716D01*
X182486800Y-96756716D02*
X182486800Y-95793716D01*
X182486800Y-99799716D02*
X182486800Y-98836716D01*
X182526800Y-96756716D02*
X182526800Y-95761716D01*
X182526800Y-99831716D02*
X182526800Y-98836716D01*
X182566800Y-96756716D02*
X182566800Y-95731716D01*
X182566800Y-99861716D02*
X182566800Y-98836716D01*
X182606800Y-96756716D02*
X182606800Y-95702716D01*
X182606800Y-99890716D02*
X182606800Y-98836716D01*
X182646800Y-96756716D02*
X182646800Y-95674716D01*
X182646800Y-99918716D02*
X182646800Y-98836716D01*
X182686800Y-96756716D02*
X182686800Y-95647716D01*
X182686800Y-99945716D02*
X182686800Y-98836716D01*
X182726800Y-96756716D02*
X182726800Y-95621716D01*
X182726800Y-99971716D02*
X182726800Y-98836716D01*
X182766800Y-96756716D02*
X182766800Y-95597716D01*
X182766800Y-99995716D02*
X182766800Y-98836716D01*
X182806800Y-96756716D02*
X182806800Y-95573716D01*
X182806800Y-100019716D02*
X182806800Y-98836716D01*
X182846800Y-96756716D02*
X182846800Y-95550716D01*
X182846800Y-100042716D02*
X182846800Y-98836716D01*
X182886800Y-96756716D02*
X182886800Y-95528716D01*
X182886800Y-100064716D02*
X182886800Y-98836716D01*
X182926800Y-96756716D02*
X182926800Y-95507716D01*
X182926800Y-100085716D02*
X182926800Y-98836716D01*
X182966800Y-96756716D02*
X182966800Y-95487716D01*
X182966800Y-100105716D02*
X182966800Y-98836716D01*
X183006800Y-96756716D02*
X183006800Y-95467716D01*
X183006800Y-100125716D02*
X183006800Y-98836716D01*
X183046800Y-96756716D02*
X183046800Y-95449716D01*
X183046800Y-100143716D02*
X183046800Y-98836716D01*
X183086800Y-96756716D02*
X183086800Y-95431716D01*
X183086800Y-100161716D02*
X183086800Y-98836716D01*
X183126800Y-96756716D02*
X183126800Y-95414716D01*
X183126800Y-100178716D02*
X183126800Y-98836716D01*
X183166800Y-96756716D02*
X183166800Y-95398716D01*
X183166800Y-100194716D02*
X183166800Y-98836716D01*
X183206800Y-96756716D02*
X183206800Y-95383716D01*
X183206800Y-100209716D02*
X183206800Y-98836716D01*
X183246800Y-96756716D02*
X183246800Y-95368716D01*
X183246800Y-100224716D02*
X183246800Y-98836716D01*
X183286800Y-96756716D02*
X183286800Y-95354716D01*
X183286800Y-100238716D02*
X183286800Y-98836716D01*
X183326800Y-96756716D02*
X183326800Y-95341716D01*
X183326800Y-100251716D02*
X183326800Y-98836716D01*
X183366800Y-96756716D02*
X183366800Y-95329716D01*
X183366800Y-100263716D02*
X183366800Y-98836716D01*
X183406800Y-96756716D02*
X183406800Y-95317716D01*
X183406800Y-100275716D02*
X183406800Y-98836716D01*
X183446800Y-96756716D02*
X183446800Y-95306716D01*
X183446800Y-100286716D02*
X183446800Y-98836716D01*
X183486800Y-96756716D02*
X183486800Y-95295716D01*
X183486800Y-100297716D02*
X183486800Y-98836716D01*
X183526800Y-96756716D02*
X183526800Y-95286716D01*
X183526800Y-100306716D02*
X183526800Y-98836716D01*
X183566800Y-96756716D02*
X183566800Y-95277716D01*
X183566800Y-100315716D02*
X183566800Y-98836716D01*
X183606800Y-96756716D02*
X183606800Y-95268716D01*
X183606800Y-100324716D02*
X183606800Y-98836716D01*
X183646800Y-96756716D02*
X183646800Y-95260716D01*
X183646800Y-100332716D02*
X183646800Y-98836716D01*
X183686800Y-96756716D02*
X183686800Y-95253716D01*
X183686800Y-100339716D02*
X183686800Y-98836716D01*
X183726800Y-96756716D02*
X183726800Y-95247716D01*
X183726800Y-100345716D02*
X183726800Y-98836716D01*
X183766800Y-96756716D02*
X183766800Y-95241716D01*
X183766800Y-100351716D02*
X183766800Y-98836716D01*
X183806800Y-96756716D02*
X183806800Y-95236716D01*
X183806800Y-100356716D02*
X183806800Y-98836716D01*
X183846800Y-96756716D02*
X183846800Y-95231716D01*
X183846800Y-100361716D02*
X183846800Y-98836716D01*
X183886800Y-96756716D02*
X183886800Y-95227716D01*
X183886800Y-100365716D02*
X183886800Y-98836716D01*
X183926800Y-100368716D02*
X183926800Y-95224716D01*
X183966800Y-100371716D02*
X183966800Y-95221716D01*
X184006800Y-100373716D02*
X184006800Y-95219716D01*
X184046800Y-100375716D02*
X184046800Y-95217716D01*
X184086800Y-100376716D02*
X184086800Y-95216716D01*
X184126800Y-100376716D02*
X184126800Y-95216716D01*
X186681575Y-99521716D02*
X186681575Y-99021716D01*
X186931575Y-99271716D02*
X186431575Y-99271716D01*
X186746800Y-97796716D02*
G75*
G02*
X181506800Y-97796716I-2620000J0D01*
G01*
X181506800Y-97796716D02*
G75*
G02*
X186746800Y-97796716I2620000J0D01*
G01*
%TO.C,TP10*%
X129426800Y-104036716D02*
X130806800Y-104036716D01*
X129426800Y-105416716D02*
X129426800Y-104036716D01*
X129426800Y-106686716D02*
X129426800Y-106796716D01*
X129426800Y-106686716D02*
X132186800Y-106686716D01*
X129426800Y-106796716D02*
X132186800Y-106796716D01*
X132186800Y-106686716D02*
X132186800Y-106796716D01*
%TO.C,J1*%
X184035540Y-106498206D02*
X185415540Y-106498206D01*
X184035540Y-107878206D02*
X184035540Y-106498206D01*
X184035540Y-109148206D02*
X184035540Y-114338206D01*
X184035540Y-109148206D02*
X186795540Y-109148206D01*
X184035540Y-114338206D02*
X186795540Y-114338206D01*
X186795540Y-109148206D02*
X186795540Y-114338206D01*
%TO.C,TP9*%
X177686800Y-102766716D02*
X179066800Y-102766716D01*
X177686800Y-104146716D02*
X177686800Y-102766716D01*
X177686800Y-105416716D02*
X177686800Y-105526716D01*
X177686800Y-105416716D02*
X180446800Y-105416716D01*
X177686800Y-105526716D02*
X180446800Y-105526716D01*
X180446800Y-105416716D02*
X180446800Y-105526716D01*
%TO.C,TP4*%
X181496800Y-126896716D02*
X182876800Y-126896716D01*
X181496800Y-128276716D02*
X181496800Y-126896716D01*
X181496800Y-129546716D02*
X181496800Y-129656716D01*
X181496800Y-129546716D02*
X184256800Y-129546716D01*
X181496800Y-129656716D02*
X184256800Y-129656716D01*
X184256800Y-129546716D02*
X184256800Y-129656716D01*
%TO.C,TP5*%
X167167980Y-102909459D02*
X168547980Y-102909459D01*
X167167980Y-104289459D02*
X167167980Y-102909459D01*
X167167980Y-105559459D02*
X167167980Y-105669459D01*
X167167980Y-105559459D02*
X169927980Y-105559459D01*
X167167980Y-105669459D02*
X169927980Y-105669459D01*
X169927980Y-105559459D02*
X169927980Y-105669459D01*
%TO.C,U2*%
X164058105Y-94105892D02*
X168178105Y-94105892D01*
X164058105Y-94200892D02*
X164058105Y-94105892D01*
X164058105Y-99225892D02*
X164058105Y-99130892D01*
X168178105Y-94105892D02*
X168178105Y-94200892D01*
X168178105Y-99130892D02*
X168178105Y-99225892D01*
X168178105Y-99225892D02*
X164058105Y-99225892D01*
X163518105Y-94195892D02*
X163278105Y-93865892D01*
X163758105Y-93865892D01*
X163518105Y-94195892D01*
G36*
X163518105Y-94195892D02*
G01*
X163278105Y-93865892D01*
X163758105Y-93865892D01*
X163518105Y-94195892D01*
G37*
%TO.C,TP11*%
X129426800Y-111656716D02*
X130806800Y-111656716D01*
X129426800Y-113036716D02*
X129426800Y-111656716D01*
X129426800Y-114306716D02*
X129426800Y-114416716D01*
X129426800Y-114306716D02*
X132186800Y-114306716D01*
X129426800Y-114416716D02*
X132186800Y-114416716D01*
X132186800Y-114306716D02*
X132186800Y-114416716D01*
%TO.C,U3*%
X164295048Y-118065220D02*
X168415048Y-118065220D01*
X164295048Y-118160220D02*
X164295048Y-118065220D01*
X164295048Y-123185220D02*
X164295048Y-123090220D01*
X168415048Y-118065220D02*
X168415048Y-118160220D01*
X168415048Y-123090220D02*
X168415048Y-123185220D01*
X168415048Y-123185220D02*
X164295048Y-123185220D01*
X163755048Y-118155220D02*
X163515048Y-117825220D01*
X163995048Y-117825220D01*
X163755048Y-118155220D01*
G36*
X163755048Y-118155220D02*
G01*
X163515048Y-117825220D01*
X163995048Y-117825220D01*
X163755048Y-118155220D01*
G37*
%TO.C,TP7*%
X157366800Y-109116716D02*
X158746800Y-109116716D01*
X157366800Y-110496716D02*
X157366800Y-109116716D01*
X157366800Y-111766716D02*
X157366800Y-111876716D01*
X157366800Y-111766716D02*
X160126800Y-111766716D01*
X157366800Y-111876716D02*
X160126800Y-111876716D01*
X160126800Y-111766716D02*
X160126800Y-111876716D01*
%TO.C,TP8*%
X147527552Y-95478380D02*
X148907552Y-95478380D01*
X147527552Y-96858380D02*
X147527552Y-95478380D01*
X147527552Y-98128380D02*
X147527552Y-98238380D01*
X147527552Y-98128380D02*
X150287552Y-98128380D01*
X147527552Y-98238380D02*
X150287552Y-98238380D01*
X150287552Y-98128380D02*
X150287552Y-98238380D01*
%TO.C,TP6*%
X138316800Y-119276716D02*
X139696800Y-119276716D01*
X138316800Y-120656716D02*
X138316800Y-119276716D01*
X138316800Y-121926716D02*
X138316800Y-122036716D01*
X138316800Y-121926716D02*
X141076800Y-121926716D01*
X138316800Y-122036716D02*
X141076800Y-122036716D01*
X141076800Y-121926716D02*
X141076800Y-122036716D01*
%TO.C,C4*%
X152814632Y-109050059D02*
X153107166Y-109050059D01*
X152814632Y-110070059D02*
X153107166Y-110070059D01*
%TO.C,R2*%
X154468381Y-100588392D02*
X154977829Y-100588392D01*
X154468381Y-101633392D02*
X154977829Y-101633392D01*
%TO.C,C3*%
X176196491Y-120714899D02*
X176196491Y-121007433D01*
X177216491Y-120714899D02*
X177216491Y-121007433D01*
%TO.C,C2*%
X173475121Y-96755620D02*
X173475121Y-97048154D01*
X174495121Y-96755620D02*
X174495121Y-97048154D01*
%TO.C,TP1*%
X120536800Y-93876716D02*
X121916800Y-93876716D01*
X120536800Y-95256716D02*
X120536800Y-93876716D01*
X120536800Y-96526716D02*
X120536800Y-96636716D01*
X120536800Y-96526716D02*
X123296800Y-96526716D01*
X120536800Y-96636716D02*
X123296800Y-96636716D01*
X123296800Y-96526716D02*
X123296800Y-96636716D01*
%TO.C,R4*%
X153921524Y-116324216D02*
X153412076Y-116324216D01*
X153921524Y-117369216D02*
X153412076Y-117369216D01*
%TO.C,U1*%
X140719913Y-107858407D02*
X144839913Y-107858407D01*
X140719913Y-107953407D02*
X140719913Y-107858407D01*
X140719913Y-112978407D02*
X140719913Y-112883407D01*
X144839913Y-107858407D02*
X144839913Y-107953407D01*
X144839913Y-112883407D02*
X144839913Y-112978407D01*
X144839913Y-112978407D02*
X140719913Y-112978407D01*
X140179913Y-107948407D02*
X139939913Y-107618407D01*
X140419913Y-107618407D01*
X140179913Y-107948407D01*
G36*
X140179913Y-107948407D02*
G01*
X139939913Y-107618407D01*
X140419913Y-107618407D01*
X140179913Y-107948407D01*
G37*
%TO.C,TP2*%
X120514963Y-126892938D02*
X121894963Y-126892938D01*
X120514963Y-128272938D02*
X120514963Y-126892938D01*
X120514963Y-129542938D02*
X120514963Y-129652938D01*
X120514963Y-129542938D02*
X123274963Y-129542938D01*
X120514963Y-129652938D02*
X123274963Y-129652938D01*
X123274963Y-129542938D02*
X123274963Y-129652938D01*
%TO.C,TP3*%
X152286800Y-126896716D02*
X153666800Y-126896716D01*
X152286800Y-128276716D02*
X152286800Y-126896716D01*
X152286800Y-129546716D02*
X152286800Y-129656716D01*
X152286800Y-129546716D02*
X155046800Y-129546716D01*
X152286800Y-129656716D02*
X155046800Y-129656716D01*
X155046800Y-129546716D02*
X155046800Y-129656716D01*
%TO.C,R1*%
X154200605Y-91966168D02*
X154200605Y-92475616D01*
X155245605Y-91966168D02*
X155245605Y-92475616D01*
%TD*%
M02*
