%TF.GenerationSoftware,KiCad,Pcbnew,9.0.5*%
%TF.CreationDate,2025-12-14T14:14:54+01:00*%
%TF.ProjectId,waage_ina155_ad8041,77616167-655f-4696-9e61-3135355f6164,rev?*%
%TF.SameCoordinates,Original*%
%TF.FileFunction,Soldermask,Top*%
%TF.FilePolarity,Negative*%
%FSLAX46Y46*%
G04 Gerber Fmt 4.6, Leading zero omitted, Abs format (unit mm)*
G04 Created by KiCad (PCBNEW 9.0.5) date 2025-12-14 14:14:54*
%MOMM*%
%LPD*%
G01*
G04 APERTURE LIST*
G04 Aperture macros list*
%AMRoundRect*
0 Rectangle with rounded corners*
0 $1 Rounding radius*
0 $2 $3 $4 $5 $6 $7 $8 $9 X,Y pos of 4 corners*
0 Add a 4 corners polygon primitive as box body*
4,1,4,$2,$3,$4,$5,$6,$7,$8,$9,$2,$3,0*
0 Add four circle primitives for the rounded corners*
1,1,$1+$1,$2,$3*
1,1,$1+$1,$4,$5*
1,1,$1+$1,$6,$7*
1,1,$1+$1,$8,$9*
0 Add four rect primitives between the rounded corners*
20,1,$1+$1,$2,$3,$4,$5,0*
20,1,$1+$1,$4,$5,$6,$7,0*
20,1,$1+$1,$6,$7,$8,$9,0*
20,1,$1+$1,$8,$9,$2,$3,0*%
G04 Aperture macros list end*
%ADD10RoundRect,0.237500X-0.250000X-0.237500X0.250000X-0.237500X0.250000X0.237500X-0.250000X0.237500X0*%
%ADD11R,1.700000X1.700000*%
%ADD12C,1.700000*%
%ADD13RoundRect,0.250000X0.550000X0.550000X-0.550000X0.550000X-0.550000X-0.550000X0.550000X-0.550000X0*%
%ADD14C,1.600000*%
%ADD15RoundRect,0.150000X-0.725000X-0.150000X0.725000X-0.150000X0.725000X0.150000X-0.725000X0.150000X0*%
%ADD16RoundRect,0.237500X-0.300000X-0.237500X0.300000X-0.237500X0.300000X0.237500X-0.300000X0.237500X0*%
%ADD17RoundRect,0.237500X-0.237500X0.300000X-0.237500X-0.300000X0.237500X-0.300000X0.237500X0.300000X0*%
%ADD18RoundRect,0.237500X0.250000X0.237500X-0.250000X0.237500X-0.250000X-0.237500X0.250000X-0.237500X0*%
%ADD19RoundRect,0.237500X-0.237500X0.250000X-0.237500X-0.250000X0.237500X-0.250000X0.237500X0.250000X0*%
G04 APERTURE END LIST*
D10*
%TO.C,R6*%
X141903253Y-103912017D03*
X143728253Y-103912017D03*
%TD*%
D11*
%TO.C,J2*%
X119605400Y-106661316D03*
D12*
X119605400Y-109201316D03*
X119605400Y-111741316D03*
X119605400Y-114281316D03*
%TD*%
D10*
%TO.C,R5*%
X166724300Y-110496716D03*
X168549300Y-110496716D03*
%TD*%
%TO.C,R3*%
X145480323Y-120656715D03*
X147305323Y-120656715D03*
%TD*%
D13*
%TO.C,C1*%
X185376800Y-97796716D03*
D14*
X182876800Y-97796716D03*
%TD*%
D11*
%TO.C,TP10*%
X130806800Y-105416716D03*
%TD*%
%TO.C,J1*%
X185415540Y-107878206D03*
D12*
X185415540Y-110418206D03*
X185415540Y-112958206D03*
%TD*%
D11*
%TO.C,TP9*%
X179066800Y-104146716D03*
%TD*%
%TO.C,TP4*%
X182876800Y-128276716D03*
%TD*%
%TO.C,TP5*%
X168547980Y-104289459D03*
%TD*%
D15*
%TO.C,U2*%
X163543105Y-94760892D03*
X163543105Y-96030892D03*
X163543105Y-97300892D03*
X163543105Y-98570892D03*
X168693105Y-98570892D03*
X168693105Y-97300892D03*
X168693105Y-96030892D03*
X168693105Y-94760892D03*
%TD*%
D11*
%TO.C,TP11*%
X130806800Y-113036716D03*
%TD*%
D15*
%TO.C,U3*%
X163780048Y-118720220D03*
X163780048Y-119990220D03*
X163780048Y-121260220D03*
X163780048Y-122530220D03*
X168930048Y-122530220D03*
X168930048Y-121260220D03*
X168930048Y-119990220D03*
X168930048Y-118720220D03*
%TD*%
D11*
%TO.C,TP7*%
X158746800Y-110496716D03*
%TD*%
%TO.C,TP8*%
X148907552Y-96858380D03*
%TD*%
%TO.C,TP6*%
X139696800Y-120656716D03*
%TD*%
D16*
%TO.C,C4*%
X152098399Y-109560059D03*
X153823399Y-109560059D03*
%TD*%
D10*
%TO.C,R2*%
X153810605Y-101110892D03*
X155635605Y-101110892D03*
%TD*%
D17*
%TO.C,C3*%
X176706491Y-119998666D03*
X176706491Y-121723666D03*
%TD*%
%TO.C,C2*%
X173985121Y-96039387D03*
X173985121Y-97764387D03*
%TD*%
D11*
%TO.C,TP1*%
X121916800Y-95256716D03*
%TD*%
D18*
%TO.C,R4*%
X154579300Y-116846716D03*
X152754300Y-116846716D03*
%TD*%
D15*
%TO.C,U1*%
X140204913Y-108513407D03*
X140204913Y-109783407D03*
X140204913Y-111053407D03*
X140204913Y-112323407D03*
X145354913Y-112323407D03*
X145354913Y-111053407D03*
X145354913Y-109783407D03*
X145354913Y-108513407D03*
%TD*%
D11*
%TO.C,TP2*%
X121894963Y-128272938D03*
%TD*%
%TO.C,TP3*%
X153666800Y-128276716D03*
%TD*%
D19*
%TO.C,R1*%
X154723105Y-91308392D03*
X154723105Y-93133392D03*
%TD*%
M02*
